<svg xmlns="http://www.w3.org/2000/svg" width="23.999" height="23.999" viewBox="0 0 23.999 23.999">
  <g id="그룹_98796" data-name="그룹 98796" transform="translate(-952 -732)">
    <path id="합치기_818" data-name="합치기 818" d="M6.891,21.9a.862.862,0,0,1-.462-.766V18.121H4.717A4.737,4.737,0,0,1,0,13.375V4.747A4.737,4.737,0,0,1,4.717,0H19.285A4.736,4.736,0,0,1,24,4.747v7.516a7.3,7.3,0,0,0-1.715-1.172V4.747a3.013,3.013,0,0,0-3-3.02H4.717a3.014,3.014,0,0,0-3,3.02v8.628a3.014,3.014,0,0,0,3,3.02H7.286a.86.86,0,0,1,.856.862V19.47l3.722-2.65a7.649,7.649,0,0,0-.05.869,7.427,7.427,0,0,0,.1,1.21L7.781,21.841A.844.844,0,0,1,7.286,22,.862.862,0,0,1,6.891,21.9Zm10.99-.18a.277.277,0,0,1-.286-.209,2.554,2.554,0,0,0-1.23-1.5,2.516,2.516,0,0,0-1.806-.359.3.3,0,0,1-.356-.167q-.109-.2-.217-.394l-.022-.039c-.1-.183-.213-.389-.324-.588a.309.309,0,0,1,0-.344.646.646,0,0,1,.066-.09l.025-.03A2.839,2.839,0,0,0,14,17.638a1.1,1.1,0,0,0,.081-.164,2.762,2.762,0,0,0-.336-2.965.305.305,0,0,1-.036-.4c.208-.333.406-.665.593-.994a.317.317,0,0,1,.374-.166,2.475,2.475,0,0,0,1.676-.2,3.561,3.561,0,0,0,1.084-.89,1.188,1.188,0,0,0,.105-.149,2.857,2.857,0,0,0,.19-.416l.014-.039a.7.7,0,0,1,.049-.1A.331.331,0,0,1,18.1,11l.667.014h.081l.411.008a.3.3,0,0,1,.312.237A2.538,2.538,0,0,0,20.737,12.7a2.521,2.521,0,0,0,1.9.391.274.274,0,0,1,.315.158c.189.336.391.7.585,1.059a.374.374,0,0,1,.046.141.283.283,0,0,1-.1.239,1.656,1.656,0,0,0-.306.381,2.931,2.931,0,0,0-.352,1.648,2.353,2.353,0,0,0,.572,1.495.336.336,0,0,1,.048.463l-.284.471c-.068.115-.172.289-.275.466a.445.445,0,0,1-.15.165l-.016.009h0a.339.339,0,0,1-.265.007,2.307,2.307,0,0,0-1.58.193,2.914,2.914,0,0,0-1.281,1.085,1.7,1.7,0,0,0-.19.447.39.39,0,0,1-.042.105.247.247,0,0,1-.1.1.361.361,0,0,1-.161.032C18.708,21.744,18.331,21.735,17.881,21.723Zm.049-8.139a2.765,2.765,0,0,0-.624.227c-.047.023-.094.049-.139.075a2.866,2.866,0,0,0,.041,4.989,2.783,2.783,0,0,0,2.632.059,2.927,2.927,0,0,0,1.175-1.088,2.862,2.862,0,0,0-2.448-4.334A2.8,2.8,0,0,0,17.93,13.585ZM17.3,17.051a1.457,1.457,0,0,1,.528-1.983,1.439,1.439,0,0,1,1.97.531,1.459,1.459,0,0,1-.528,1.984l0,0a1.423,1.423,0,0,1-.714.192A1.442,1.442,0,0,1,17.3,17.051ZM6.863,12.512a.863.863,0,1,1,0-1.725H12.85a.863.863,0,1,1,0,1.725Zm0-4.315a.863.863,0,1,1,0-1.725h9.417a.863.863,0,0,1,0,1.725Z" transform="translate(951.999 733)" fill="#1e38a7"/>
    <rect id="사각형_15453" data-name="사각형 15453" width="23.999" height="23.999" transform="translate(952 732)" fill="#4d5165" opacity="0.002"/>
  </g>
</svg>
