<svg xmlns="http://www.w3.org/2000/svg" width="24" height="24" viewBox="0 0 24 24">
  <g id="그룹_98795" data-name="그룹 98795" transform="translate(-772 -732)">
    <g id="그룹_98794" data-name="그룹 98794" transform="translate(772 732)">
      <g id="그룹_98712" data-name="그룹 98712" transform="translate(0 1)">
        <path id="합치기_814_-_윤곽선" data-name="합치기 814 - 윤곽선" d="M9548.787,537.5a.857.857,0,0,1-.857-.863v-3.016h-1.714a4.736,4.736,0,0,1-4.715-4.746v-8.629a4.736,4.736,0,0,1,4.715-4.746h14.571a4.736,4.736,0,0,1,4.714,4.746v8.629a4.736,4.736,0,0,1-4.714,4.746h-6.279l-5.227,3.721A.851.851,0,0,1,9548.787,537.5Zm-2.571-20.274a3.014,3.014,0,0,0-3,3.02v8.629a3.014,3.014,0,0,0,3,3.02h2.571a.86.86,0,0,1,.856.863v2.212l4.1-2.916a.854.854,0,0,1,.5-.158h6.552a3.014,3.014,0,0,0,3-3.02v-8.629a3.014,3.014,0,0,0-3-3.02Z" transform="translate(-9541.501 -515.5)" fill="#4d5165"/>
        <rect id="사각형_15437" data-name="사각형 15437" width="10.072" height="1.857" rx="0.929" transform="translate(6.499 6.43)" fill="#4d5165"/>
        <rect id="사각형_15438" data-name="사각형 15438" width="8.357" height="1.857" rx="0.929" transform="translate(5.763 10.716)" fill="#1e38a7"/>
      </g>
      <rect id="사각형_15455" data-name="사각형 15455" width="24" height="24" fill="#4d5165" opacity="0.002"/>
    </g>
  </g>
</svg>
