<svg xmlns="http://www.w3.org/2000/svg" width="23.999" height="21.999" viewBox="0 0 23.999 21.999">
  <path id="합치기_817" data-name="합치기 817" d="M13.286,16.712A5.357,5.357,0,1,1,18.643,22,5.329,5.329,0,0,1,13.286,16.712Zm2.5-.476-.49.525a.388.388,0,0,0,0,.526L17.548,19.7a.335.335,0,0,0,.245.108.33.33,0,0,0,.246-.108l4-4.269a.394.394,0,0,0,0-.526l-.492-.525a.337.337,0,0,0-.247-.109.333.333,0,0,0-.245.109l-3.258,3.482-1.52-1.626a.338.338,0,0,0-.247-.109A.331.331,0,0,0,15.782,16.236ZM6.891,21.478a.844.844,0,0,1-.462-.751V17.769H4.717A4.691,4.691,0,0,1,0,13.115V4.654A4.69,4.69,0,0,1,4.717,0H19.285A4.69,4.69,0,0,1,24,4.654v7.37a7.286,7.286,0,0,0-1.715-1.148V4.654a2.984,2.984,0,0,0-3-2.962H4.717a2.985,2.985,0,0,0-3,2.962v8.461a2.985,2.985,0,0,0,3,2.961H7.286a.852.852,0,0,1,.856.846v2.169l3.722-2.6a7.365,7.365,0,0,0-.05.853,7.152,7.152,0,0,0,.1,1.186L7.781,21.416a.855.855,0,0,1-.495.156A.89.89,0,0,1,6.891,21.478Zm-.046-9.209a.846.846,0,1,1,0-1.692h6.022a.846.846,0,1,1,0,1.692Zm0-4.231a.846.846,0,1,1,0-1.692H16.3a.846.846,0,1,1,0,1.692Z" transform="translate(-0.001)" fill="#4d5165"/>
</svg>
