<svg xmlns="http://www.w3.org/2000/svg" width="23.999" height="23.998" viewBox="0 0 23.999 23.998">
  <g id="그룹_98799" data-name="그룹 98799" transform="translate(-345 -732)">
    <path id="합치기_820" data-name="합치기 820" d="M5.919,21.919a.717.717,0,0,1-.4-.639V18.766H4.05A4.007,4.007,0,0,1,0,14.811V7.62A4.007,4.007,0,0,1,4.05,3.666H16.567A4.007,4.007,0,0,1,20.616,7.62v7.191a4.007,4.007,0,0,1-4.049,3.955H11.174l-4.492,3.1A.742.742,0,0,1,6.259,22,.772.772,0,0,1,5.919,21.919ZM1.473,7.62v7.191A2.55,2.55,0,0,0,4.05,17.328H6.259a.728.728,0,0,1,.736.719V19.89l3.52-2.43a.75.75,0,0,1,.424-.132h5.629a2.55,2.55,0,0,0,2.577-2.516V7.62A2.551,2.551,0,0,0,16.567,5.1H4.05A2.551,2.551,0,0,0,1.473,7.62Zm4.464,6.463a.709.709,0,1,1,0-1.418h5.009a.709.709,0,1,1,0,1.418Zm15.751-.557h0V11.939a2.212,2.212,0,0,0,.824-1.688V3.638a2.473,2.473,0,0,0-2.6-2.315H7.272A2.689,2.689,0,0,0,5.028,2.468h-.46a6.049,6.049,0,0,0-1.21.122A4.088,4.088,0,0,1,7.272,0H19.913A3.885,3.885,0,0,1,24,3.638v6.613a3.655,3.655,0,0,1-2.308,3.275ZM5.71,10.483a.709.709,0,1,1,0-1.418h8.484a.709.709,0,0,1,0,1.418Z" transform="translate(345.001 733)" fill="#4d5165"/>
    <rect id="사각형_15457" data-name="사각형 15457" width="23.998" height="23.998" transform="translate(345 732)" fill="#fff" opacity="0.002"/>
  </g>
</svg>
