<svg xmlns="http://www.w3.org/2000/svg" width="22.435" height="13.161" viewBox="0 0 22.435 13.161">
  <path id="합치기_750" data-name="합치기 750" d="M7.8,12.705a12.852,12.852,0,0,1-3.076-1.283A13.077,13.077,0,0,1,.074,6.847a.521.521,0,0,1,0-.534A13.1,13.1,0,0,1,3.4,2.617l.77.718A12.006,12.006,0,0,0,1.127,6.581,12.056,12.056,0,0,0,5.24,10.526a11.927,11.927,0,0,0,2.831,1.182,11.966,11.966,0,0,0,3.146.418,12,12,0,0,0,2.166-.2l.923.861a13.032,13.032,0,0,1-3.09.37A13,13,0,0,1,7.8,12.705Zm9.014-.093L5.072,1.666A.777.777,0,0,1,6.132.529l11.74,10.948a.777.777,0,0,1-1.059,1.136ZM18.094,9.95a12.071,12.071,0,0,0,1.771-1.527,12.016,12.016,0,0,0,1.443-1.841,12.046,12.046,0,0,0-4.113-3.945,11.831,11.831,0,0,0-2.83-1.182A12.021,12.021,0,0,0,8.8,1.281L7.887.431A12.991,12.991,0,0,1,22.361,6.313a.521.521,0,0,1,0,.534A13.035,13.035,0,0,1,20.8,8.934a13.082,13.082,0,0,1-1.937,1.735Z" transform="translate(0)" fill="#030497"/>
</svg>
