<svg xmlns="http://www.w3.org/2000/svg" width="34" height="34" viewBox="0 0 34 34">
  <g id="그룹_99388" data-name="그룹 99388" transform="translate(-876 -670)">
    <circle id="타원_874" data-name="타원 874" cx="17" cy="17" r="17" transform="translate(876 670)" fill="#cb0f08"/>
    <g id="그룹_99383" data-name="그룹 99383" transform="translate(883.521 676.559)">
      <path id="패스_95152" data-name="패스 95152" d="M1.249,31.461,0,33.624l1.249,2.164h2.5L5,33.624l-1.25-2.163Z" transform="translate(0 -20.879)" fill="#fff"/>
      <path id="패스_95153" data-name="패스 95153" d="M1.249,15.731,0,17.894l1.249,2.164h2.5L5,17.894l-1.25-2.163Z" transform="translate(0 -10.439)" fill="#fff"/>
      <path id="패스_95154" data-name="패스 95154" d="M1.249,0,0,2.164,1.249,4.328h2.5L5,2.164,3.747,0Z" fill="#fff"/>
      <path id="패스_95155" data-name="패스 95155" d="M15.083,55.166,13.834,57.33l1.249,2.163h2.5l1.249-2.163-1.249-2.164Z" transform="translate(-9.181 -36.61)" fill="#fff"/>
      <path id="패스_95156" data-name="패스 95156" d="M15.083,28.035,13.834,25.87l1.249-2.163h2.5l1.249,2.163-1.249,2.164Z" transform="translate(-9.18 -15.733)" fill="#fff"/>
      <path id="패스_95157" data-name="패스 95157" d="M28.918,51.519l-1.249-2.164,1.249-2.163h2.5l1.249,2.163-1.249,2.164Z" transform="translate(-18.362 -31.318)" fill="#fff"/>
      <path id="패스_95158" data-name="패스 95158" d="M28.918,35.788l-1.249-2.164,1.249-2.163h2.5l1.249,2.163-1.249,2.164Z" transform="translate(-18.362 -20.879)" fill="#fff"/>
      <path id="패스_95159" data-name="패스 95159" d="M28.918,20.058l-1.249-2.164,1.249-2.163h2.5l1.249,2.163-1.249,2.164Z" transform="translate(-18.362 -10.439)" fill="#fff"/>
      <path id="패스_95160" data-name="패스 95160" d="M28.918,0,27.669,2.164l1.249,2.163h2.5l1.249-2.163L31.417,0Z" transform="translate(-18.362)" fill="#fff"/>
      <path id="패스_95161" data-name="패스 95161" d="M42.753,39.437,41.5,41.6l1.249,2.164h2.5L46.5,41.6l-1.25-2.163Z" transform="translate(-27.544 -26.172)" fill="#fff"/>
      <path id="패스_95162" data-name="패스 95162" d="M42.753,7.977,41.5,10.14,42.753,12.3h2.5L46.5,10.14l-1.25-2.163Z" transform="translate(-27.544 -5.294)" fill="#fff"/>
    </g>
  </g>
</svg>
