<svg xmlns="http://www.w3.org/2000/svg" xmlns:xlink="http://www.w3.org/1999/xlink" width="34" height="34" viewBox="0 0 34 34">
  <defs>
    <clipPath id="clip-path">
      <rect id="사각형_80174" data-name="사각형 80174" width="28.938" height="21.959" fill="#fff"/>
    </clipPath>
  </defs>
  <g id="그룹_99391" data-name="그룹 99391" transform="translate(-670 -670)">
    <circle id="타원_874" data-name="타원 874" cx="17" cy="17" r="17" transform="translate(670 670)" fill="#cb0f08"/>
    <g id="그룹_99380" data-name="그룹 99380" transform="translate(673 677)">
      <g id="그룹_99380-2" data-name="그룹 99380" clip-path="url(#clip-path)">
        <path id="패스_95145" data-name="패스 95145" d="M28.817,10.816l-3.8-6.378a.857.857,0,0,0-.737-.419H20.229V.86A.859.859,0,0,0,19.371,0H.859A.859.859,0,0,0,0,.86V16.9a.859.859,0,0,0,.859.859h2.3a3.211,3.211,0,1,0,6.107,0h7.93a3.211,3.211,0,1,0,6.107,0h4.778a.859.859,0,0,0,.859-.859V11.256a.857.857,0,0,0-.121-.44M4.245,9.346,3.171,11.1h-1L3.693,8.692l-1.5-2.406h.993l1.06,1.768h.04L5.351,6.286h.987L4.856,8.692,6.361,11.1h-1L4.284,9.346ZM6.211,20.174a1.425,1.425,0,1,1,1.425-1.425,1.425,1.425,0,0,1-1.425,1.425M8.718,9.443H6.551v-.7H8.718Zm2.891-1.2a.94.94,0,0,0-.181-.037,1.816,1.816,0,0,0-.214-.013.861.861,0,0,0-.417.1.74.74,0,0,0-.291.279.78.78,0,0,0-.106.405V11.1H9.555V7.489h.817v.6h.04a.886.886,0,0,1,.334-.482.925.925,0,0,1,.553-.173,1.633,1.633,0,0,1,.309.023ZM14.992,11.1h-.811v-.5h-.027a1.019,1.019,0,0,1-.4.412,1.282,1.282,0,0,1-.666.159,1.479,1.479,0,0,1-.621-.125.988.988,0,0,1-.43-.371,1.072,1.072,0,0,1-.158-.591.9.9,0,0,1,.376-.808,1.97,1.97,0,0,1,.97-.289l.354-.022q.194-.011.377-.018l.191-.005,0-.294a.6.6,0,0,0-.073-.3.447.447,0,0,0-.221-.191.919.919,0,0,0-.361-.063.8.8,0,0,0-.449.115.513.513,0,0,0-.223.311H12a1.059,1.059,0,0,1,.226-.553,1.274,1.274,0,0,1,.524-.382,1.987,1.987,0,0,1,.769-.138,2.158,2.158,0,0,1,.718.116,1.137,1.137,0,0,1,.543.4,1.19,1.19,0,0,1,.214.728Zm2.442.435a1.424,1.424,0,0,1-.467.685,1.3,1.3,0,0,1-.8.236q-.329-.007-.439-.017v-.681q.093.007.359.013a1,1,0,0,0,.213-.025.327.327,0,0,0,.163-.108.855.855,0,0,0,.143-.269l.076-.193L15.374,7.489h.9l.834,2.725h.04l.834-2.725h.9Zm2.814,8.641a1.425,1.425,0,1,1,1.425-1.425,1.425,1.425,0,0,1-1.425,1.425m1.175-9.288V6.291h2.212l2.722,4.594Z" transform="translate(0 -0.001)" fill="#fff"/>
        <path id="패스_95146" data-name="패스 95146" d="M75.942,55.858l-.2.015q-.246.01-.449.027a.932.932,0,0,0-.485.156.427.427,0,0,0-.173.362.42.42,0,0,0,.08.259.493.493,0,0,0,.216.161.8.8,0,0,0,.316.051.95.95,0,0,0,.442-.1.735.735,0,0,0,.3-.271.7.7,0,0,0,.1-.374l0-.3-.146.011" transform="translate(-61.935 -46.345)" fill="#fff"/>
      </g>
    </g>
  </g>
</svg>
