<svg xmlns="http://www.w3.org/2000/svg" width="21.666" height="19.167" viewBox="0 0 21.666 19.167">
  <g id="그룹_98452" data-name="그룹 98452" transform="translate(-671.536 -677)">
    <path id="합치기_787" data-name="합치기 787" d="M21.063,19.167H13.429V18.2h.6V17.97a7.672,7.672,0,0,1,1.878-5.25,7.659,7.659,0,0,1-1.878-5.252V7.243h-.6V6.27h8.237v.974h-.6v.225a7.664,7.664,0,0,1-1.878,5.252,7.677,7.677,0,0,1,1.878,5.25V18.2h.6v.965Zm-6.348-11.7a6.21,6.21,0,0,0,2,4.826l.537.426-.537.425a6.2,6.2,0,0,0-2,4.825V18.2h5.664V17.97a6.188,6.188,0,0,0-2-4.825l-.536-.425.536-.426a6.2,6.2,0,0,0,2-4.826V7.243H14.715ZM0,19.167a8.98,8.98,0,0,1,4.556-7.93,5.546,5.546,0,0,0,3.757,1.51,5.54,5.54,0,0,0,3.757-1.51,8.4,8.4,0,0,1,2.213,1.75,6.173,6.173,0,0,0-1.625,4.055,11.064,11.064,0,0,0,0,2.125Zm15.667-1.581c0-1.479.842-2.68,1.878-2.68s1.883,1.2,1.883,2.68ZM3.193,5.827C3.193,2.616,5.49,0,8.312,0s5.117,2.616,5.117,5.827-2.3,5.827-5.117,5.827S3.193,9.037,3.193,5.827Zm5.119,4.464c2.121,0,3.842-2,3.842-4.464A4.849,4.849,0,0,1,9.247,3.076,5.718,5.718,0,0,1,4.468,5.827C4.468,8.288,6.2,10.291,8.312,10.291Zm7.472-.525h3.529c-.269,1.024-.956,1.754-1.768,1.754S16.054,10.79,15.784,9.766Z" transform="translate(671.536 677)" fill="#fff"/>
  </g>
</svg>
