<svg xmlns="http://www.w3.org/2000/svg" width="20" height="20" viewBox="0 0 20 20">
  <g id="그룹_98450" data-name="그룹 98450" transform="translate(-469.211 -677)">
    <g id="그룹_98426" data-name="그룹 98426" transform="translate(469.211 677)">
      <g id="그룹_98379" data-name="그룹 98379" transform="translate(0 0)">
        <path id="패스_82373" data-name="패스 82373" d="M19.4,7.887a2.221,2.221,0,0,0-3.072-.08L14.305,9.671l-.5-.639A4.871,4.871,0,0,0,14.5,7.409l1.519-.2V5.478l-1.519-.2A4.87,4.87,0,0,0,13.8,3.654l.929-1.185L13.472,1.246l-1.221.9a5.2,5.2,0,0,0-1.673-.673L10.37,0H8.587L8.38,1.474a5.2,5.2,0,0,0-1.673.673l-1.221-.9L4.224,2.469l.928,1.185a4.87,4.87,0,0,0-.694,1.623l-1.519.2v1.73l1.519.2a4.871,4.871,0,0,0,.694,1.623l-.776.99A6.989,6.989,0,0,0,.1,13.271a.71.71,0,0,0,.263.988A.757.757,0,0,0,1.385,14a5.684,5.684,0,0,1,5.5-2.761A.758.758,0,0,0,7,11.252H10.92a.785.785,0,1,1,0,1.568.793.793,0,0,0-.1.006l-3.449.454a.726.726,0,0,0-.637.812.737.737,0,0,0,.736.625.816.816,0,0,0,.1-.007l3.4-.448a2.293,2.293,0,0,0,2.106-1.48c.006-.005.013-.009.019-.014l4.256-3.913a.7.7,0,0,1,.969.025.651.651,0,0,1-.026.94.775.775,0,0,0-.07.073L14.271,14.7a7.379,7.379,0,0,1-3.534,1.866L.6,18.571a.723.723,0,0,0-.58.851A.739.739,0,0,0,.743,20a.773.773,0,0,0,.149-.015l10.151-2.008.019,0A8.707,8.707,0,0,0,15.4,15.642l.021-.025,3.943-4.789A2.063,2.063,0,0,0,19.4,7.887m-9.925.347a1.892,1.892,0,1,1,1.95-1.892,1.921,1.921,0,0,1-1.95,1.892" transform="translate(0)" fill="#1e38a7"/>
      </g>
    </g>
  </g>
</svg>
