<svg xmlns="http://www.w3.org/2000/svg" xmlns:xlink="http://www.w3.org/1999/xlink" width="39.162" height="32" viewBox="0 0 39.162 32">
  <defs>
    <clipPath id="clip-path">
      <rect id="사각형_14955" data-name="사각형 14955" width="39.162" height="32" fill="none"/>
    </clipPath>
  </defs>
  <g id="그룹_98112" data-name="그룹 98112" transform="translate(0 0)">
    <g id="그룹_98111" data-name="그룹 98111" transform="translate(0 0)" clip-path="url(#clip-path)">
      <path id="패스_82078" data-name="패스 82078" d="M1.25,54.969v-1.9c0-4.64,4.061-8.4,9.07-8.4h2.645c5.01,0,9.07,3.76,9.07,8.4v1.9" transform="translate(-0.659 -23.56)" fill="#fff"/>
      <path id="패스_82079" data-name="패스 82079" d="M21.376,54.9a.591.591,0,0,1-.591-.591v-1.9c0-4.306-3.8-7.809-8.479-7.809H9.661c-4.676,0-8.479,3.5-8.479,7.809v1.9A.591.591,0,0,1,0,54.31v-1.9c0-4.957,4.334-8.99,9.661-8.99h2.645c5.327,0,9.661,4.033,9.661,8.99v1.9a.591.591,0,0,1-.591.591" transform="translate(0 -22.901)" fill="#3a4968"/>
      <path id="패스_82080" data-name="패스 82080" d="M22.652,20.449c0,3.707-2.268,6.712-5.067,6.712s-5.065-3-5.065-6.712,2.268-5.7,5.065-5.7,5.067,1.992,5.067,5.7" transform="translate(-6.603 -7.779)" fill="#fff"/>
      <path id="패스_82081" data-name="패스 82081" d="M16.926,27.093c-3.119,0-5.656-3.276-5.656-7.3,0-4.344,2.841-6.289,5.656-6.289s5.657,1.945,5.657,6.289c0,4.026-2.538,7.3-5.657,7.3m0-12.41c-2.718,0-4.474,2-4.474,5.108,0,3.375,2.007,6.121,4.474,6.121S21.4,23.166,21.4,19.791c0-3.1-1.757-5.108-4.476-5.108" transform="translate(-5.943 -7.12)" fill="#3a4968"/>
      <path id="패스_82082" data-name="패스 82082" d="M51.757,7.579a6.329,6.329,0,1,0-6.328,6.329,6.328,6.328,0,0,0,6.328-6.329" transform="translate(-20.62 -0.659)" fill="#fff"/>
      <path id="패스_82083" data-name="패스 82083" d="M44.77,13.839a6.92,6.92,0,1,1,6.919-6.92,6.928,6.928,0,0,1-6.919,6.92m0-12.658A5.738,5.738,0,1,0,50.507,6.92,5.744,5.744,0,0,0,44.77,1.182" transform="translate(-19.961 0)" fill="#3a4968"/>
      <path id="패스_82084" data-name="패스 82084" d="M54.876,10.31H51.909a.591.591,0,0,1-.591-.591V5.761a.591.591,0,0,1,1.182,0V9.128h2.377a.591.591,0,0,1,0,1.182" transform="translate(-27.064 -2.726)" fill="#3a4968"/>
      <path id="패스_82085" data-name="패스 82085" d="M62.907,14.605h-.289a.307.307,0,1,1,0-.614h.289a.307.307,0,1,1,0,.614" transform="translate(-32.861 -7.378)" fill="#3a4968"/>
      <path id="패스_82086" data-name="패스 82086" d="M41.356,14.605h-.289a.307.307,0,1,1,0-.614h.289a.307.307,0,1,1,0,.614" transform="translate(-21.496 -7.378)" fill="#3a4968"/>
      <path id="패스_82087" data-name="패스 82087" d="M52.148,25.366a.307.307,0,0,1-.307-.307V24.77a.307.307,0,1,1,.614,0v.288a.307.307,0,0,1-.307.307" transform="translate(-27.339 -12.901)" fill="#3a4968"/>
      <path id="패스_82088" data-name="패스 82088" d="M52.148,3.815a.307.307,0,0,1-.307-.307V3.218a.307.307,0,1,1,.614,0v.289a.307.307,0,0,1-.307.307" transform="translate(-27.339 -1.535)" fill="#3a4968"/>
      <path id="패스_82089" data-name="패스 82089" d="M59.755,22.214a.306.306,0,0,1-.217-.09l-.2-.2a.307.307,0,1,1,.434-.434l.2.2a.307.307,0,0,1-.217.525" transform="translate(-31.243 -11.283)" fill="#3a4968"/>
      <path id="패스_82090" data-name="패스 82090" d="M44.516,6.973a.306.306,0,0,1-.217-.09l-.2-.2a.307.307,0,0,1,.434-.434l.2.2a.307.307,0,0,1-.217.524" transform="translate(-23.207 -3.246)" fill="#3a4968"/>
      <path id="패스_82091" data-name="패스 82091" d="M44.311,22.214a.307.307,0,0,1-.217-.525l.2-.2a.307.307,0,1,1,.434.434l-.2.2a.306.306,0,0,1-.217.09" transform="translate(-23.206 -11.283)" fill="#3a4968"/>
      <path id="패스_82092" data-name="패스 82092" d="M59.551,6.973a.307.307,0,0,1-.217-.524l.2-.2a.307.307,0,1,1,.434.434l-.2.2a.308.308,0,0,1-.217.09" transform="translate(-31.244 -3.246)" fill="#3a4968"/>
      <path id="패스_82093" data-name="패스 82093" d="M62.352,29.45V27.588l-1.976-.783a7.012,7.012,0,0,0-.781-1.883l.844-1.953-1.316-1.316L57.17,22.5a6.925,6.925,0,0,0-1.883-.78L54.5,19.739H52.642l-.784,1.978a6.928,6.928,0,0,0-1.884.78l-1.952-.845-1.317,1.316.844,1.953a6.98,6.98,0,0,0-.781,1.883l-1.977.783V29.45l1.977.784a7.018,7.018,0,0,0,.781,1.883l-.844,1.952,1.317,1.318,1.952-.845a6.974,6.974,0,0,0,1.884.78l.784,1.978H54.5l.783-1.978a6.97,6.97,0,0,0,1.883-.78l1.953.845,1.316-1.318L59.6,32.117a7.05,7.05,0,0,0,.781-1.883Zm-8.78,2.327a3.257,3.257,0,1,1,3.258-3.257,3.257,3.257,0,0,1-3.258,3.257" transform="translate(-23.622 -10.41)" fill="#c6e5ff"/>
      <path id="패스_82094" data-name="패스 82094" d="M54.022,37.251H52.161a.433.433,0,0,1-.4-.273l-.7-1.776a7.435,7.435,0,0,1-1.59-.658l-1.752.759a.433.433,0,0,1-.478-.091l-1.317-1.318a.433.433,0,0,1-.091-.477l.758-1.753a7.5,7.5,0,0,1-.659-1.59l-1.775-.7a.431.431,0,0,1-.272-.4V27.107a.432.432,0,0,1,.272-.4l1.775-.7a7.438,7.438,0,0,1,.659-1.59l-.758-1.753a.434.434,0,0,1,.091-.477l1.317-1.316a.432.432,0,0,1,.477-.091l1.752.758a7.362,7.362,0,0,1,1.591-.658l.7-1.776a.433.433,0,0,1,.4-.273h1.861a.431.431,0,0,1,.4.273l.7,1.775a7.3,7.3,0,0,1,1.59.658l1.753-.758a.43.43,0,0,1,.476.091l1.317,1.316a.433.433,0,0,1,.091.477L59.6,24.412a7.392,7.392,0,0,1,.66,1.59l1.775.7a.432.432,0,0,1,.273.4v1.862a.432.432,0,0,1-.272.4l-1.775.7a7.465,7.465,0,0,1-.66,1.59l.759,1.753a.434.434,0,0,1-.091.477l-1.317,1.318a.433.433,0,0,1-.477.091l-1.753-.759a7.394,7.394,0,0,1-1.59.658l-.7,1.776a.432.432,0,0,1-.4.273m-1.569-.864h1.275l.675-1.7a.435.435,0,0,1,.3-.26,6.545,6.545,0,0,0,1.767-.732.432.432,0,0,1,.393-.026l1.684.728.9-.9-.728-1.683a.435.435,0,0,1,.026-.393,6.59,6.59,0,0,0,.734-1.768.431.431,0,0,1,.259-.3l1.7-.675V27.4l-1.7-.675a.431.431,0,0,1-.259-.3,6.579,6.579,0,0,0-.734-1.767.434.434,0,0,1-.026-.393l.728-1.684-.9-.9-1.683.729a.431.431,0,0,1-.394-.026,6.468,6.468,0,0,0-1.766-.732.434.434,0,0,1-.3-.26l-.675-1.705H52.453l-.676,1.705a.43.43,0,0,1-.3.26,6.476,6.476,0,0,0-1.767.732.431.431,0,0,1-.393.026l-1.684-.729-.9.9.728,1.684a.431.431,0,0,1-.026.394,6.53,6.53,0,0,0-.733,1.767.433.433,0,0,1-.259.3l-1.7.675v1.275l1.7.675a.433.433,0,0,1,.259.3,6.561,6.561,0,0,0,.733,1.768.43.43,0,0,1,.026.393l-.728,1.683.9.9,1.683-.728a.431.431,0,0,1,.392.026,6.586,6.586,0,0,0,1.768.732.433.433,0,0,1,.3.259Zm.637-4.66a3.689,3.689,0,1,1,3.69-3.689,3.693,3.693,0,0,1-3.69,3.689m0-6.514a2.825,2.825,0,1,0,2.826,2.825,2.828,2.828,0,0,0-2.826-2.825" transform="translate(-23.141 -9.928)" fill="#3a4968"/>
      <path id="패스_82095" data-name="패스 82095" d="M57.656,37.724a5.12,5.12,0,1,1,5.122-5.12,5.126,5.126,0,0,1-5.122,5.12m0-9.376A4.256,4.256,0,1,0,61.914,32.6a4.261,4.261,0,0,0-4.258-4.256" transform="translate(-27.706 -14.495)" fill="#3a4968"/>
    </g>
  </g>
</svg>
