<svg xmlns="http://www.w3.org/2000/svg" width="34" height="34" viewBox="0 0 34 34">
  <g id="그룹_98533" data-name="그룹 98533" transform="translate(-773 -670)">
    <circle id="타원_874" data-name="타원 874" cx="17" cy="17" r="17" transform="translate(773 670)" fill="#f5f5f5"/>
    <g id="그룹_99381" data-name="그룹 99381" transform="translate(778 674.608)">
      <g id="그룹_99382" data-name="그룹 99382" transform="translate(0 0)">
        <path id="패스_95147" data-name="패스 95147" d="M12.2,0a12.2,12.2,0,1,0,12.2,12.2A12.2,12.2,0,0,0,12.2,0m0,22.24A10.045,10.045,0,1,1,22.241,12.2,10.056,10.056,0,0,1,12.2,22.24" transform="translate(0 0)" fill="#1e38a7"/>
        <path id="패스_95148" data-name="패스 95148" d="M30.584,32.5a1.918,1.918,0,1,0-1.918-1.918A1.918,1.918,0,0,0,30.584,32.5" transform="translate(-18.388 -18.39)" fill="#1e38a7"/>
        <path id="패스_95149" data-name="패스 95149" d="M41.528,13.229l-2.51,4.347a3.59,3.59,0,0,1,1.8,3.106h5.02a8.613,8.613,0,0,0-4.307-7.453" transform="translate(-25.029 -8.486)" fill="#1e38a7"/>
        <path id="패스_95150" data-name="패스 95150" d="M26.317,43.164a3.567,3.567,0,0,1-1.793-.485l-2.51,4.347a8.578,8.578,0,0,0,8.606,0l-2.51-4.347a3.564,3.564,0,0,1-1.793.485" transform="translate(-14.121 -27.377)" fill="#1e38a7"/>
        <path id="패스_95151" data-name="패스 95151" d="M16.817,17.576l-2.51-4.347A8.614,8.614,0,0,0,10,20.682h5.02a3.59,3.59,0,0,1,1.8-3.106" transform="translate(-6.415 -8.486)" fill="#1e38a7"/>
      </g>
    </g>
  </g>
</svg>
