<svg xmlns="http://www.w3.org/2000/svg" width="15.23" height="19.086" viewBox="0 0 15.23 19.086">
  <g id="그룹_9041" data-name="그룹 9041" transform="translate(-779.157 -420)">
    <path id="패스_704" data-name="패스 704" d="M3.106,0H12V17H0V2.718Z" transform="translate(780 422)" fill="#efefef"/>
    <g id="그룹_4719" data-name="그룹 4719" transform="translate(530 -1839)">
      <path id="빼기_157" data-name="빼기 157" d="M13.325,17.771H0V2.963L3.007,0h4.6V1.481H4.439V3.657H1.479V16.243H11.845v-1.7h1.482v3.227Z" transform="translate(249.157 2260.315)" fill="#727171"/>
      <path id="패스_576" data-name="패스 576" d="M.385-.416a.527.527,0,0,0-.545-.64A.516.516,0,0,0-.7-.43V3.887s.221,1.49-.952,1.476-.952-1.476-.952-1.476V-2.159A1.665,1.665,0,0,1-.839-3.945,1.666,1.666,0,0,1,.929-2.154V6.031a2.518,2.518,0,0,1-2.6,2.822A2.484,2.484,0,0,1-4.24,6.031V-.184s.068-.638-.546-.638-.544.638-.544.638v7.13s.153,2.821,3.673,2.821S2.017,6.946,2.017,6.946v-9.8S1.9-4.918-.839-4.917-3.7-2.856-3.7-2.856V4.337S-3.935,6.3-1.638,6.3.385,4.336.385,4.336Z" transform="translate(262.371 2263.917)" fill="#727171" fill-rule="evenodd"/>
    </g>
  </g>
</svg>
