<svg xmlns="http://www.w3.org/2000/svg" width="17.917" height="20" viewBox="0 0 17.917 20">
  <g id="그룹_98454" data-name="그룹 98454" transform="translate(-876.833 -677.834)">
    <path id="합치기_788" data-name="합치기 788" d="M1.012,20,.023,13.57A4.887,4.887,0,0,1,2.5,8.933V12.62l2.258-2.259A1.444,1.444,0,0,1,6.8,12.4l-1.76,1.763a5.529,5.529,0,0,1,.737,4.657A8.615,8.615,0,0,0,6.7,16.6h3.336A6.314,6.314,0,0,1,8.553,20Zm5.553-4.153a5.738,5.738,0,0,0-.429-1.283h10.5V1.278H8.633V4.609a.641.641,0,0,1-.641.638H4.66V9.5a2.338,2.338,0,0,0-.435.331l-.843.844V4.593a.616.616,0,0,1,.014-.11.393.393,0,0,1,.034-.107.1.1,0,0,0,.011-.032c.014-.023.025-.047.041-.071s.011-.019.015-.028a.58.58,0,0,1,.075-.087L7.541.185a.624.624,0,0,1,.1-.078C7.655.095,7.675.088,7.7.074L7.748.047A.333.333,0,0,1,7.816.028.194.194,0,0,1,7.869.011.6.6,0,0,1,7.982,0h9.295a.637.637,0,0,1,.64.637V15.205a.641.641,0,0,1-.64.641Zm3.779-3.863a.566.566,0,0,1,0-1.132h3.313a.566.566,0,0,1,0,1.132Zm-2.7-2.828a.566.566,0,1,1,0-1.132h6.014a.566.566,0,0,1,0,1.132Zm2.5-2.829a.566.566,0,0,1,0-1.132h3.509a.566.566,0,1,1,0,1.132Z" transform="translate(876.833 677.834)" fill="#fff" />
  </g>
</svg>
