<svg xmlns="http://www.w3.org/2000/svg" width="18.405" height="19.405" viewBox="0 0 18.405 19.405">
  <path id="download" d="M7.765,0h2.876A.885.885,0,0,1,11.5.91V7.277h3.153a.762.762,0,0,1,.507,1.292L9.7,14.338a.671.671,0,0,1-.981,0L3.239,8.569a.762.762,0,0,1,.507-1.292H6.9V.91A.885.885,0,0,1,7.765,0ZM18.405,14.251V18.5a.885.885,0,0,1-.863.91H.863A.885.885,0,0,1,0,18.5V14.251a.885.885,0,0,1,.863-.91H6.136L7.9,15.2a1.776,1.776,0,0,0,2.61,0l1.761-1.857h5.274A.885.885,0,0,1,18.405,14.251Zm-4.458,3.335a.72.72,0,1,0-.719.758A.741.741,0,0,0,13.948,17.586Zm2.3,0a.72.72,0,1,0-.719.758A.741.741,0,0,0,16.248,17.586Z" fill="#1e38a7"/>
</svg>
