<svg xmlns="http://www.w3.org/2000/svg" xmlns:xlink="http://www.w3.org/1999/xlink" width="54" height="54.344" viewBox="0 0 54 54.344">
  <defs>
    <clipPath id="clip-path">
      <rect id="사각형_15049" data-name="사각형 15049" width="37.98" height="40.344" fill="none"/>
    </clipPath>
  </defs>
  <g id="그룹_98234" data-name="그룹 98234" transform="translate(-313 -149)">
    <g id="타원_865" data-name="타원 865" transform="translate(313 149)" fill="#efefef" stroke="#f2f2f2" stroke-width="1">
      <circle cx="27" cy="27" r="27" stroke="none"/>
      <circle cx="27" cy="27" r="26.5" fill="none"/>
    </g>
    <g id="그룹_98164" data-name="그룹 98164" transform="translate(323.5 163)">
      <g id="그룹_98163" data-name="그룹 98163" transform="translate(0 0)" clip-path="url(#clip-path)">
        <path id="패스_82153" data-name="패스 82153" d="M11.577,67.294c-.141,1.776-.116,2.931-.116,2.931C3.535,75.372,2.3,80.816,2.3,80.816s10.955-3.747,13.4-8.667a22.992,22.992,0,0,0,1.214-3.644,7.317,7.317,0,0,0-5.334-1.211" transform="translate(-1.457 -42.647)" fill="#f0786a"/>
        <path id="패스_82154" data-name="패스 82154" d="M30.224,35.852c-2.087,3.952-2.3,8.567-2.533,11.544a7.319,7.319,0,0,1,5.334,1.211,40.351,40.351,0,0,0,1.451-8.479c.026-3.405-1.634-3.368-4.252-4.276" transform="translate(-17.571 -22.75)" fill="#22365b"/>
        <path id="패스_82155" data-name="패스 82155" d="M3.062,101.3a5.343,5.343,0,0,0-.589,1.523c.009.279.489.1.487.428-.814.262-1.37.756-2.112-3.176.258-.086.649-.182.959-.248.135-.029.246-.064.161.046-.314.4.483.427.865.7a.6.6,0,0,1,.229.722" transform="translate(-0.538 -63.328)" fill="#265173"/>
        <path id="패스_82156" data-name="패스 82156" d="M2.422,103.724v.142a.277.277,0,0,1-.279.276l-.445,0a.827.827,0,0,1-.779-.559l-.9-2.623a.283.283,0,0,1,.172-.369l.119-.041s.6-.152.661,1.13c.077,1.694.329,2.358,1.451,2.045" transform="translate(0 -63.798)" fill="#b5d6ea"/>
        <path id="패스_82157" data-name="패스 82157" d="M65.254,27.921s4.619,5.565,8.582,4.857c2.9-.517,5.361-8.282,3.592-9.8l-4.369,6.4a28.678,28.678,0,0,1-4.307-3.927s-6.207,1-3.5,2.475" transform="translate(-40.972 -14.577)" fill="#f79885"/>
        <path id="패스_82158" data-name="패스 82158" d="M97.978,19.919a23.726,23.726,0,0,1-.979-2.8c.1-.1.626.677.626.677s.107-1.917.432-1.842c.19.043.071,1.076.071,1.076s.355-.986.592-.871a1.859,1.859,0,0,1,.8,1.213c.056.545-1.547,2.547-1.547,2.547" transform="translate(-61.546 -10.122)" fill="#f79885"/>
        <path id="패스_82159" data-name="패스 82159" d="M48.7,17.1s-.263,3.164-10.4,6.117l-5.329-4.149s.617-.96,1.628-2.276l.269-.348c1.8-2.3,4.649-5.457,7.479-6.625A22.334,22.334,0,0,1,48.7,17.1" transform="translate(-20.925 -6.228)" fill="#eb5654"/>
        <path id="패스_82160" data-name="패스 82160" d="M69.054,14.315c-.246,1.943-2.494,4.279-3.541,3.443-.989-.79.306-3.624.306-3.624a1.348,1.348,0,0,0,1.049-.977c.463-2.05,2.4-.5,2.187,1.159" transform="translate(-41.334 -7.727)" fill="#f79885"/>
        <path id="패스_82161" data-name="패스 82161" d="M69.413,7.824c.148-2.029-1.045-3.218.963-3.766s2.584-.269,2.841,1.353-.153,3.817-.7,4.081c-.261.127-.811-.073-1.066-.159a4.566,4.566,0,0,1-2.041-1.509" transform="translate(-43.907 -2.413)" fill="#f79885"/>
        <path id="패스_82162" data-name="패스 82162" d="M66.676,3.552c-3.681-1.895,5.528-1.716,4.1.462-.285.435-1.973.4-1.973.4L68.345,5.5s-.428-.562-.645-.283.019.7.485.8c0,0-.71,1.236-1.431,1.236-1.225,0-1.637-1.057-.227-2.379-2.32.6-1.066-.934.147-1.324" transform="translate(-41.39 -1.425)" fill="#22365b"/>
        <path id="패스_82163" data-name="패스 82163" d="M40.58,41.08a28.788,28.788,0,0,0-9.115-5.957c-3.044,4.692,2.659,8.734,5.531,10.5,1.228-2.886,2.7-4.117,3.584-4.542" transform="translate(-19.414 -22.287)" fill="#265173"/>
        <path id="패스_82164" data-name="패스 82164" d="M41.273,51.423c-.88.425-2.356,1.656-3.584,4.542.99.608,1.7.947,1.7.947-6.257,3.4-7.7,8.176-7.7,8.176s10.5-2.978,12.845-6.669c1.1-1.733-.612-4.459-3.259-7" transform="translate(-20.107 -32.63)" fill="#f79885"/>
        <path id="패스_82165" data-name="패스 82165" d="M31.94,85.316c-.866.655-1.109,2.235-1.707,2.21a11.05,11.05,0,0,1,.182-4.361,9.635,9.635,0,0,1,.959.153c.133.027.246.039.127.1-.441.24.266.573.5.972a.906.906,0,0,1-.062.921" transform="translate(-19.093 -52.771)" fill="#265173"/>
        <path id="패스_82166" data-name="패스 82166" d="M29.787,87.507l-.139-.006a.272.272,0,0,1-.261-.283l.16-3.817a.278.278,0,0,1,.3-.264l.123.01s.517.071.151,1.275a8.773,8.773,0,0,0-.333,3.086" transform="translate(-18.647 -52.753)" fill="#b5d6ea"/>
        <path id="패스_82167" data-name="패스 82167" d="M45,16.623a4.537,4.537,0,0,1-.14.7,5.567,5.567,0,0,1-.225.645,5.445,5.445,0,0,1-.668,1.182,5.073,5.073,0,0,1-2.122,1.63,6.476,6.476,0,0,1-2.547.457c-.211,0-.422-.014-.634-.023s-.42-.037-.628-.065l-.6-.094c.086-.111.177-.229.268-.349l.368.02c.2,0,.4,0,.6,0s.4-.02.6-.04a6.349,6.349,0,0,0,2.239-.628,4.183,4.183,0,0,0,1.636-1.482,4.546,4.546,0,0,0,.483-.991,4.915,4.915,0,0,0,.148-.534,3.477,3.477,0,0,0,.083-.508Z" transform="translate(-23.751 -10.497)" fill="#c93b38"/>
        <path id="패스_82168" data-name="패스 82168" d="M31,3.587S25.578-.662,21.623.089c-2.892.549-7.517,6.782-6.354,8.805l6.948-5.485s3.088,1.74,4.945,2.8c3.109,1.772,6.56-1.175,3.836-2.62" transform="translate(-9.573 0)" fill="#f79885"/>
        <path id="패스_82169" data-name="패스 82169" d="M12.866,20.741a23.715,23.715,0,0,1-.005,2.966c-.124.061-.366-.846-.366-.846s-.737,1.773-1.018,1.594c-.165-.1.289-1.038.289-1.038s-.662.812-.848.625a1.863,1.863,0,0,1-.357-1.411c.129-.532,2.3-1.89,2.3-1.89" transform="translate(-6.683 -13.161)" fill="#f79885"/>
      </g>
    </g>
  </g>
</svg>
