<svg xmlns="http://www.w3.org/2000/svg" width="16" height="14" viewBox="0 0 16 14">
  <g id="그룹_98209" data-name="그룹 98209" transform="translate(-369 -141)">
    <g id="사각형_15088" data-name="사각형 15088" transform="translate(374 141)" fill="#eff3f8" stroke="#707070" stroke-width="1">
      <rect width="11" height="4" rx="2" stroke="none"/>
      <rect x="0.5" y="0.5" width="10" height="3" rx="1.5" fill="none"/>
    </g>
    <g id="사각형_15090" data-name="사각형 15090" transform="translate(374 146)" fill="#eff3f8" stroke="#707070" stroke-width="1">
      <rect width="11" height="4" rx="2" stroke="none"/>
      <rect x="0.5" y="0.5" width="10" height="3" rx="1.5" fill="none"/>
    </g>
    <g id="사각형_15092" data-name="사각형 15092" transform="translate(374 151)" fill="#eff3f8" stroke="#707070" stroke-width="1">
      <rect width="11" height="4" rx="2" stroke="none"/>
      <rect x="0.5" y="0.5" width="10" height="3" rx="1.5" fill="none"/>
    </g>
    <g id="사각형_15089" data-name="사각형 15089" transform="translate(369 141)" fill="#eff3f8" stroke="#707070" stroke-width="1">
      <rect width="4" height="4" rx="2" stroke="none"/>
      <rect x="0.5" y="0.5" width="3" height="3" rx="1.5" fill="none"/>
    </g>
    <g id="사각형_15091" data-name="사각형 15091" transform="translate(369 146)" fill="#eff3f8" stroke="#707070" stroke-width="1">
      <rect width="4" height="4" rx="2" stroke="none"/>
      <rect x="0.5" y="0.5" width="3" height="3" rx="1.5" fill="none"/>
    </g>
    <g id="사각형_15093" data-name="사각형 15093" transform="translate(369 151)" fill="#eff3f8" stroke="#707070" stroke-width="1">
      <rect width="4" height="4" rx="2" stroke="none"/>
      <rect x="0.5" y="0.5" width="3" height="3" rx="1.5" fill="none"/>
    </g>
  </g>
</svg>
