<svg xmlns="http://www.w3.org/2000/svg" xmlns:xlink="http://www.w3.org/1999/xlink" width="16.446" height="15.948" viewBox="0 0 16.446 15.948">
  <defs>
    <clipPath id="clip-path">
      <rect id="사각형_15413" data-name="사각형 15413" width="16.446" height="15.948" fill="none"/>
    </clipPath>
  </defs>
  <g id="그룹_98624" data-name="그룹 98624" transform="translate(0 0)">
    <g id="그룹_98623" data-name="그룹 98623" transform="translate(0 0)" clip-path="url(#clip-path)">
      <path id="패스_82700" data-name="패스 82700" d="M11.949,39.121a.538.538,0,0,0,1.077,0V34.35a.538.538,0,0,0-1.077,0Z" transform="translate(-9.678 -27.385)" fill="#28336e"/>
      <path id="패스_82701" data-name="패스 82701" d="M24.68,39.121a.538.538,0,0,0,1.077,0V34.35a.538.538,0,0,0-1.077,0Z" transform="translate(-19.989 -27.385)" fill="#28336e"/>
      <path id="패스_82702" data-name="패스 82702" d="M37.227,39.121a.538.538,0,0,0,1.077,0V34.35a.538.538,0,0,0-1.077,0Z" transform="translate(-30.15 -27.385)" fill="#28336e"/>
      <path id="패스_82703" data-name="패스 82703" d="M48.392,38.035a.538.538,0,0,0,1.077,0v-3.82a.538.538,0,0,0-1.077,0Z" transform="translate(-39.193 -27.275)" fill="#28336e"/>
      <path id="패스_82704" data-name="패스 82704" d="M20.071,33.35a.538.538,0,0,0-.538-.538H12.672a.538.538,0,1,0,0,1.077h6.861a.538.538,0,0,0,.538-.538" transform="translate(-9.827 -26.575)" fill="#28336e"/>
      <path id="패스_82705" data-name="패스 82705" d="M18.365,61.141a.538.538,0,0,0-.538-.538h-5.34a.538.538,0,1,0,0,1.077h5.34a.538.538,0,0,0,.538-.538" transform="translate(-9.677 -49.083)" fill="#28336e"/>
      <path id="패스_82706" data-name="패스 82706" d="M20.071,42.336a.538.538,0,0,0-.538-.538H12.672a.538.538,0,1,0,0,1.077h6.861a.538.538,0,0,0,.538-.538" transform="translate(-9.827 -33.852)" fill="#28336e"/>
      <path id="패스_82707" data-name="패스 82707" d="M20.071,51.753a.538.538,0,0,0-.538-.538H12.672a.538.538,0,1,0,0,1.077h6.861a.538.538,0,0,0,.538-.538" transform="translate(-9.827 -41.479)" fill="#28336e"/>
      <path id="패스_82708" data-name="패스 82708" d="M48.536,39.246,51.67,42.38a.49.49,0,0,0,.693,0L55.5,39.246a.49.49,0,0,0-.346-.836H53.73V33.3a.49.49,0,0,0-.49-.49H50.791a.49.49,0,0,0-.49.49V38.41H48.882a.49.49,0,0,0-.346.836" transform="translate(-39.193 -26.575)" fill="#28336e"/>
      <path id="패스_82709" data-name="패스 82709" d="M1.217,5h3.17A.609.609,0,0,0,5,4.387V1.217h7.622V5.58h1.217V.608A.608.608,0,0,0,13.226,0H4.38a.592.592,0,0,0-.112.011c-.017,0-.032.01-.048.014a.6.6,0,0,0-.065.02C4.137.054,4.12.064,4.1.074A.563.563,0,0,0,4.05.1a.616.616,0,0,0-.093.076L.178,3.957a.576.576,0,0,0-.069.084C.1,4.049.1,4.058.093,4.067a.635.635,0,0,0-.037.07c0,.01-.009.019-.013.029a.6.6,0,0,0-.031.1v0A.609.609,0,0,0,0,4.375s0,.008,0,.012V14.473a.608.608,0,0,0,.608.608H9.877V13.864H1.217Z" transform="translate(0 0)" fill="#28336e"/>
    </g>
  </g>
</svg>
