<svg id="구성_요소_74_1" data-name="구성 요소 74 – 1" xmlns="http://www.w3.org/2000/svg" width="24" height="24" viewBox="0 0 24 24">
  <rect id="사각형_80194" data-name="사각형 80194" width="24" height="24" fill="#fff" opacity="0"/>
  <g id="interface-ui-controls-sliders-svgrepo-com">
    <path id="패스_95192" data-name="패스 95192" d="M4.853,4A2.757,2.757,0,0,0,2,6.631,2.73,2.73,0,0,0,4.14,9.2v9.933a.649.649,0,0,0,.713.658.649.649,0,0,0,.713-.658V9.2a2.673,2.673,0,0,0,2.14-2.565A2.757,2.757,0,0,0,4.853,4Z" transform="translate(0 0)" fill="#6a75ca"/>
    <path id="패스_95193" data-name="패스 95193" d="M15.566,11.959v-7.3a.716.716,0,0,0-1.426,0v7.3A2.673,2.673,0,0,0,12,14.525a2.73,2.73,0,0,0,2.14,2.565v2.039a.716.716,0,0,0,1.426,0V17.09a2.673,2.673,0,0,0,2.14-2.565A2.73,2.73,0,0,0,15.566,11.959Z" transform="translate(-2.853 0)" fill="#6a75ca"/>
    <path id="패스_95194" data-name="패스 95194" d="M27.706,10.578a2.73,2.73,0,0,0-2.14-2.565V4.658a.716.716,0,0,0-1.426,0V8.013A2.673,2.673,0,0,0,22,10.578a2.73,2.73,0,0,0,2.14,2.565v5.986a.716.716,0,0,0,1.426,0V13.143A2.73,2.73,0,0,0,27.706,10.578Z" transform="translate(-5.706 0)" fill="#6a75ca"/>
  </g>
</svg>
