<svg xmlns="http://www.w3.org/2000/svg" width="24" height="24.001" viewBox="0 0 24 24.001">
  <g id="그룹_98901" data-name="그룹 98901" transform="translate(-1486 -22)">
    <rect id="사각형_6605" data-name="사각형 6605" width="24" height="24.001" transform="translate(1486 22)" fill="#898989" opacity="0"/>
    <path id="합치기_823" data-name="합치기 823" d="M9537.546,19246.219a9.462,9.462,0,0,1-3.459-12.908,9.315,9.315,0,0,1,3.623-3.555l-1.638-.531a.788.788,0,0,1-.2-.088,1.035,1.035,0,0,1,.048-1.82,1.051,1.051,0,0,1,.792-.062l4.343,1.41a.944.944,0,0,1,.2.088,1.034,1.034,0,0,1,.411.443,1.046,1.046,0,0,1,.043.816l-1.574,4.266a1.046,1.046,0,0,1-1.334.613,1.147,1.147,0,0,1-.159-.072,1.045,1.045,0,0,1-.454-1.26l.782-2.117a7.373,7.373,0,1,0,9.677,10.295.828.828,0,0,1,.5-.426,1.2,1.2,0,0,1,.908.131c.02.01.034.023.053.033a1.069,1.069,0,0,1,.392,1.18l-.015.053-.033.053a9.358,9.358,0,0,1-5.734,4.4,9.511,9.511,0,0,1-2.466.326A9.409,9.409,0,0,1,9537.546,19246.219Zm3.8-4.4v-4.932a.752.752,0,0,1,.773-.734H9546a.737.737,0,1,1,0,1.473h-3.111v4.193a.774.774,0,0,1-1.546,0Zm8.536-1.777a.908.908,0,1,1,.908.908A.906.906,0,0,1,9549.879,19240.041Zm.449-2.725a.908.908,0,1,1,.908.908A.91.91,0,0,1,9550.328,19237.316Zm-.449-3a.908.908,0,1,1,.908.908A.91.91,0,0,1,9549.879,19234.316Zm-1.821-2.633a.908.908,0,1,1,.908.908A.908.908,0,0,1,9548.058,19231.684Zm-2.725-1.633a.908.908,0,1,1,.908.908A.908.908,0,0,1,9545.333,19230.051Z" transform="translate(-8044.824 -19203.203)" fill="#898989"/>
  </g>
</svg>
