<svg xmlns="http://www.w3.org/2000/svg" width="34" height="34" viewBox="0 0 34 34">
  <g id="그룹_98531" data-name="그룹 98531" transform="translate(-979 -670)">
    <circle id="타원_874" data-name="타원 874" cx="17" cy="17" r="17" transform="translate(979 670)" fill="#f4dba4"/>
    <g id="그룹_98455" data-name="그룹 98455" transform="translate(7 -0.666)">
      <path id="합치기_789" data-name="합치기 789" d="M11.254,19.167V7.672H7.392V17.677a1.538,1.538,0,0,1-1.584,1.489H3.471a1.543,1.543,0,0,1-1.59-1.489V13.35L.844,12.83A1.459,1.459,0,0,1,.037,11.2L1.2,6.262A1.569,1.569,0,0,1,2.753,5.1H13.02A1.333,1.333,0,0,1,14.4,6.386,1.332,1.332,0,0,1,13.02,7.672V19.167ZM2.275,2.216A2.292,2.292,0,0,1,4.637,0,2.3,2.3,0,0,1,7,2.216,2.291,2.291,0,0,1,4.637,4.427,2.288,2.288,0,0,1,2.275,2.216Zm9.421,2.2A.427.427,0,0,1,11.254,4V.413A.43.43,0,0,1,11.7,0h7.86a.414.414,0,0,1,.358.66L18.9,1.966a.4.4,0,0,0,0,.484l1.017,1.31a.411.411,0,0,1-.358.655Z" transform="translate(979.459 678.666)" fill="#1e38a7"/>
    </g>
  </g>
</svg>
