<svg xmlns="http://www.w3.org/2000/svg" width="24" height="24" viewBox="0 0 24 24">
  <g id="그룹_98897" data-name="그룹 98897" transform="translate(-224 -1815)">
    <rect id="사각형_15477" data-name="사각형 15477" width="24" height="24" transform="translate(224 1815)" fill="#fff" opacity="0"/>
    <path id="합치기_5" data-name="합치기 5" d="M9.311,22.285A9.318,9.318,0,0,1,.329,10.513,2.876,2.876,0,0,1,0,9.158V2.442A2.24,2.24,0,0,1,1.956,0H8.8c1.08,0,1.6,1.057,1.956,2.442l.355,1.221h7.3A5.587,5.587,0,0,1,24,9.25v3.724a9.311,9.311,0,0,1-9.311,9.311Z" transform="translate(224 1816)" fill="none"/>
    <path id="합치기_5_-_윤곽선" data-name="합치기 5 - 윤곽선" d="M-8132-117.546a1.212,1.212,0,0,0,1.2-1.222V-132.5h-12.433l-.754-2.6a9.507,9.507,0,0,1-.3-1.068l-6.687-.014a.807.807,0,0,0-.224.625v16.79a1.213,1.213,0,0,0,1.2,1.222h18m0,1.832h-18a3.026,3.026,0,0,1-3-3.053v-16.79a2.239,2.239,0,0,1,1.955-2.442h6.844c1.08,0,1.6,1.057,1.955,2.442l.355,1.221h11.089a1.816,1.816,0,0,1,1.8,1.832v13.737A3.026,3.026,0,0,1-8132-115.714Z" transform="translate(8377 1954)" fill="#6a75ca"/>
    <path id="패스_339" data-name="패스 339" d="M8.013,1.45H0V-.083H7.612L9.565-2H22.728V-.467H9.966Z" transform="translate(225 1827)" fill="#6a75ca"/>
  </g>
</svg>
