<svg xmlns="http://www.w3.org/2000/svg" width="25" height="24.999" viewBox="0 0 25 24.999">
  <path id="빼기_1" data-name="빼기 1" d="M20.145,24H3.857A3.825,3.825,0,0,1,0,20.215V3.2A3.235,3.235,0,0,1,3.261,0H20.74A3.235,3.235,0,0,1,24,3.2V20.215A3.825,3.825,0,0,1,20.145,24ZM2.24,6.289V20.215A1.6,1.6,0,0,0,3.857,21.8H20.145a1.6,1.6,0,0,0,1.615-1.586v-3.17h-.014V6.289ZM19.962,2.612a1.037,1.037,0,1,0,1.056,1.037A1.048,1.048,0,0,0,19.962,2.612Zm-3.885,0a1.037,1.037,0,1,0,1.056,1.037A1.048,1.048,0,0,0,16.077,2.612Zm-12.746.13a.907.907,0,1,0,0,1.814h8.745a.907.907,0,0,0,0-1.814Z" transform="translate(0.5 0.5)" fill="#605e6b" stroke="rgba(0,0,0,0)" stroke-miterlimit="10" stroke-width="1"/>
</svg>
