<svg xmlns="http://www.w3.org/2000/svg" xmlns:xlink="http://www.w3.org/1999/xlink" width="34" height="34" viewBox="0 0 34 34">
  <defs>
    <clipPath id="clip-path">
      <rect id="사각형_80173" data-name="사각형 80173" width="26.227" height="19.902" fill="#1e38a7"/>
    </clipPath>
  </defs>
  <g id="그룹_99602" data-name="그룹 99602" transform="translate(-464 -670)">
    <circle id="타원_874" data-name="타원 874" cx="17" cy="17" r="17" transform="translate(464 670)" fill="#f5f5f5"/>
    <g id="그룹_99375" data-name="그룹 99375" transform="translate(468 677.779)">
      <g id="그룹_99375-2" data-name="그룹 99375" clip-path="url(#clip-path)">
        <path id="패스_95141" data-name="패스 95141" d="M32.861,27.98V19.962a1.028,1.028,0,0,0-2.056,0V27.98a1.028,1.028,0,0,0,2.056,0" transform="translate(-26.055 -16.014)" fill="#1e38a7"/>
        <path id="패스_95142" data-name="패스 95142" d="M55.528,27.98V19.962a1.028,1.028,0,1,0-2.056,0V27.98a1.028,1.028,0,1,0,2.056,0" transform="translate(-45.226 -16.014)" fill="#1e38a7"/>
        <path id="패스_95143" data-name="패스 95143" d="M78.2,27.98V19.962a1.028,1.028,0,1,0-2.056,0V27.98a1.028,1.028,0,1,0,2.056,0" transform="translate(-64.399 -16.014)" fill="#1e38a7"/>
        <path id="패스_95144" data-name="패스 95144" d="M26.117,9.8l-3.446-5.78A.777.777,0,0,0,22,3.643H18.334V.779A.778.778,0,0,0,17.556,0H.778A.779.779,0,0,0,0,.779V15.315a.779.779,0,0,0,.778.778H2.862a2.911,2.911,0,1,0,5.535,0h7.187a2.911,2.911,0,1,0,5.535,0h4.33a.779.779,0,0,0,.778-.778V10.2a.777.777,0,0,0-.11-.4M5.629,18.283a1.291,1.291,0,1,1,1.291-1.291,1.292,1.292,0,0,1-1.291,1.291m11.149-3.747H7.188a2.9,2.9,0,0,0-3.118,0H1.557V1.558H16.778Zm1.573,3.747a1.291,1.291,0,1,1,1.291-1.291,1.292,1.292,0,0,1-1.291,1.291m1.065-8.418V5.7h2l2.467,4.163Z" transform="translate(0 -0.001)" fill="#1e38a7"/>
      </g>
    </g>
  </g>
</svg>
