<svg xmlns="http://www.w3.org/2000/svg" xmlns:xlink="http://www.w3.org/1999/xlink" width="54" height="54" viewBox="0 0 54 54">
  <defs>
    <clipPath id="clip-path">
      <rect id="사각형_15054" data-name="사각형 15054" width="26.86" height="50.792" fill="none"/>
    </clipPath>
  </defs>
  <g id="그룹_98235" data-name="그룹 98235" transform="translate(-602 -149)">
    <g id="타원_867" data-name="타원 867" transform="translate(602 149)" fill="#efefef" stroke="#f2f2f2" stroke-width="1">
      <circle cx="27" cy="27" r="27" stroke="none"/>
      <circle cx="27" cy="27" r="26.5" fill="none"/>
    </g>
    <g id="그룹_98174" data-name="그룹 98174" transform="translate(619.07 152)">
      <g id="그룹_98173" data-name="그룹 98173" clip-path="url(#clip-path)">
        <path id="패스_82224" data-name="패스 82224" d="M3.767,130.1l.709-1.85-1.589-.529a10.275,10.275,0,0,0,.88,2.379" transform="translate(-1.801 -79.665)" fill="#f79885"/>
        <path id="패스_82225" data-name="패스 82225" d="M50.187,127.912l-1.539.686a10.634,10.634,0,0,0,2,1.621Z" transform="translate(-30.344 -79.784)" fill="#f79885"/>
        <path id="패스_82226" data-name="패스 82226" d="M51.234,129.172c.312.909,1.162.982,1.162,1.629a4.045,4.045,0,0,1-2.686,0c.006-.288.029-.712.052-1.043.01-.145.015-.188.062-.091.2.418.3-.07.472-.523.072-.186.845-.24.937.029" transform="translate(-31.006 -80.454)" fill="#265173"/>
        <path id="패스_82227" data-name="패스 82227" d="M52.391,133.279v.15c0,.163-.056.295-.126.295H49.831c-.073,0-.13-.141-.128-.312l0-.133s.021-.535.481-.22a2.759,2.759,0,0,0,2.2.22" transform="translate(-31.002 -82.932)" fill="#b5d6ea"/>
        <path id="패스_82228" data-name="패스 82228" d="M20.983,85.739l-1.538.686A16.087,16.087,0,0,1,17.013,83.3c-.113-.184-.223-.377-.333-.576-.134-.24-.264-.49-.392-.751-.038-.074-.074-.148-.11-.222-.059-.125-.119-.255-.178-.4a37.876,37.876,0,0,1-1.309-3.768c-.938-3.085-2.01-7.221-3.133-11.6L7.273,77.167,5.688,81.3l-.249.65-.312.819-.249.648L3.814,86.2l-1.589-.528a13.338,13.338,0,0,1-.377-3.991,20.266,20.266,0,0,1,.4-2.491c.071-.353.155-.73.241-1.131q.084-.365.172-.757c.083-.365.172-.742.268-1.134.038-.166.08-.335.122-.5C4.182,71,5.908,64.785,7.386,60.3l5.188,1.731,3.643-.232,2.815,14.149.246,1.235.16.808.235,1.179Z" transform="translate(-1.14 -37.61)" fill="#008eb0"/>
        <path id="패스_82229" data-name="패스 82229" d="M1.162,129.172C.85,130.081,0,130.154,0,130.8a4.045,4.045,0,0,0,2.686,0c-.006-.288-.029-.712-.052-1.043-.01-.145-.015-.188-.062-.091-.2.418-.3-.07-.472-.523-.072-.186-.845-.24-.937.029" transform="translate(0 -80.454)" fill="#265173"/>
        <path id="패스_82230" data-name="패스 82230" d="M0,133.279v.15c0,.163.056.295.126.295H2.56c.073,0,.13-.141.128-.312l0-.133s-.021-.535-.481-.22a2.759,2.759,0,0,1-2.2.22" transform="translate(0 -82.932)" fill="#b5d6ea"/>
        <path id="패스_82231" data-name="패스 82231" d="M31.776,11.855c-1,2.128-.855,1.988-1.954,1.5-1.339-.594-2.018-.237-.946-2.376A47.28,47.28,0,0,1,31.7,5.294c1.672-2.533,8.885-2.96,10.489-1.784l-8.2,3.556c-.556,1.142-1.724,3.77-2.211,4.789" transform="translate(-17.681 -1.8)" fill="#f79885"/>
        <path id="패스_82232" data-name="패스 82232" d="M49.469,17.686c-1.911,1.37-.557,4.051,1.352,2.609a17.85,17.85,0,0,0,5.02-3.892c1.9-2.369,1.6-9.078-.161-10.22L53.744,14.56c-1.023.754-3.362,2.463-4.275,3.126" transform="translate(-30.28 -3.857)" fill="#f79885"/>
        <path id="패스_82233" data-name="패스 82233" d="M14.622,37.45s3.291-10.591,5.753-15.329l3.3,1.3s-.817,2.293-.3,2.779a14.992,14.992,0,0,0,3.609,1.848,14.423,14.423,0,0,0,2.432-1.294L30.8,30.472s-3.266.816-3.712,1.41-2.474,5.037-2.4,7.3A21.921,21.921,0,0,1,14.622,37.45" transform="translate(-9.12 -13.798)" fill="#265173"/>
        <path id="패스_82234" data-name="패스 82234" d="M38.688,30.122c-.317,1.911,1.706,2.21,2.161,1.592a12,12,0,0,1,.95-1.648,6.707,6.707,0,0,1,.581-.728L40.5,27.956a6.766,6.766,0,0,1-.524.77,12.036,12.036,0,0,1-1.292,1.4" transform="translate(-24.111 -17.437)" fill="#f79885"/>
        <path id="패스_82235" data-name="패스 82235" d="M42.684,27.956a6.762,6.762,0,0,1-.523.77,1.215,1.215,0,0,0,1.819,1.34,6.753,6.753,0,0,1,.581-.728Z" transform="translate(-26.29 -17.437)" fill="#f0786a"/>
        <path id="패스_82236" data-name="패스 82236" d="M46.081,21.47a1.444,1.444,0,0,0-2.017-.02,4.7,4.7,0,0,0-1.322,2.512A1.243,1.243,0,0,0,44.691,25.4,4.7,4.7,0,0,0,46.7,23.39a1.444,1.444,0,0,0-.617-1.92" transform="translate(-26.635 -13.13)" fill="#f79885"/>
        <path id="패스_82237" data-name="패스 82237" d="M44.052,24.157s.146-.574-.086-.432a.744.744,0,0,0-.3.816Z" transform="translate(-27.212 -14.784)" fill="#f79885"/>
        <path id="패스_82238" data-name="패스 82238" d="M50.693,29.34s.5-.31.438-.046a.743.743,0,0,1-.691.527Z" transform="translate(-31.461 -18.205)" fill="#f79885"/>
        <path id="패스_82239" data-name="패스 82239" d="M44.946,20.991c-.239.027-.488.228-.815.648,0,0,.775-2.287,1.385-1.72,1.238-.856,3.058.283,1.886.8,2.1.185.625,1.049.625,1.049.722.414-1.175,1.774-1.175,1.774a1.206,1.206,0,0,0,.321-.912,2.335,2.335,0,0,0-2.227-1.64" transform="translate(-27.526 -12.232)" fill="#51192b"/>
        <path id="패스_82240" data-name="패스 82240" d="M62.058,1.712s.794.193.748.3a4.6,4.6,0,0,1-1.067.076c-.711.006-1.517-.006-1.517-.006S61.354.161,61.816.036A1.626,1.626,0,0,1,63,.274a.279.279,0,0,1,.048.038c.16.152-.453.695-.519.753.076-.038.8-.411.9-.274.161.241-1.368.921-1.368.921" transform="translate(-37.562 0)" fill="#f79885"/>
        <path id="패스_82241" data-name="패스 82241" d="M64.334,2.06s.794.193.748.3a4.6,4.6,0,0,1-1.067.076c-.245-.465-.11-.706-.08-.722a.766.766,0,0,1,.474.165A2.073,2.073,0,0,1,64.532.659a.3.3,0,0,1,.232-.1l.013,0c.078.011.181.039.269.233a.34.34,0,0,1,.233-.171.279.279,0,0,1,.048.038c.16.152-.453.695-.519.753.076-.038.8-.411.9-.274.161.241-1.368.921-1.368.921" transform="translate(-39.839 -0.348)" fill="#f0786a"/>
        <path id="패스_82242" data-name="패스 82242" d="M65.456,4.342a20.629,20.629,0,0,1-1.3-2.234c.067-.1.647.476.647.476S64.576.926,64.867.937c.17.006.239.908.239.908s.141-.9.362-.843a1.62,1.62,0,0,1,.889.9c.137.457-.9,2.435-.9,2.435" transform="translate(-40.015 -0.584)" fill="#f79885"/>
        <path id="패스_82243" data-name="패스 82243" d="M7.077,107.6l-.249.65A16.231,16.231,0,0,1,4.054,103.6c.083-.365.172-.742.268-1.134a17.559,17.559,0,0,0,2.755,5.14" transform="translate(-2.529 -63.91)" fill="#b5d6ea"/>
        <path id="패스_82244" data-name="패스 82244" d="M5.832,112.208l-.249.647a15.515,15.515,0,0,1-2.625-4.234c.071-.353.154-.731.24-1.131a16.866,16.866,0,0,0,2.634,4.718" transform="translate(-1.845 -67.046)" fill="#b5d6ea"/>
        <path id="패스_82245" data-name="패스 82245" d="M42.774,103.122a16.11,16.11,0,0,1-2.99,4.792c-.038-.074-.075-.148-.11-.223-.059-.125-.119-.255-.178-.4a17.554,17.554,0,0,0,3.032-5.407Z" transform="translate(-24.635 -63.551)" fill="#b5d6ea"/>
        <path id="패스_82246" data-name="패스 82246" d="M44.3,108.495a15.575,15.575,0,0,1-2.661,4.133c-.113-.184-.223-.377-.333-.576a16.791,16.791,0,0,0,2.758-4.736Z" transform="translate(-25.762 -66.937)" fill="#b5d6ea"/>
      </g>
    </g>
  </g>
</svg>
