<svg id="그룹_98216" data-name="그룹 98216" xmlns="http://www.w3.org/2000/svg" width="22.434" height="13.161" viewBox="0 0 22.434 13.161">
  <path id="패스_82313" data-name="패스 82313" d="M11.217,0A12.981,12.981,0,0,1,22.36,6.314a.518.518,0,0,1,0,.533,13.072,13.072,0,0,1-4.648,4.575,12.921,12.921,0,0,1-3.077,1.284,13.074,13.074,0,0,1-6.837,0,12.92,12.92,0,0,1-3.077-1.284A13.072,13.072,0,0,1,.074,6.847a.518.518,0,0,1,0-.533A13.072,13.072,0,0,1,4.722,1.739,12.927,12.927,0,0,1,11.217,0ZM21.308,6.58a12.037,12.037,0,0,0-4.114-3.945,11.942,11.942,0,0,0-11.954,0A12.037,12.037,0,0,0,1.127,6.58,12.037,12.037,0,0,0,5.24,10.526a11.885,11.885,0,0,0,2.831,1.181,12.038,12.038,0,0,0,6.293,0,11.885,11.885,0,0,0,2.831-1.181A12.037,12.037,0,0,0,21.308,6.58Z" transform="translate(0 0)" fill="#030497"/>
  <path id="패스_82314" data-name="패스 82314" d="M29.7,2.07a6.117,6.117,0,1,1-2.388.482A6.1,6.1,0,0,1,29.7,2.07Zm0,11.232a5.081,5.081,0,1,0-1.984-.4A5.066,5.066,0,0,0,29.7,13.3Z" transform="translate(-18.485 -1.624)" fill="#030497"/>
  <path id="패스_82315" data-name="패스 82315" d="M39.3,14.415a3.367,3.367,0,0,0-1.221.231,1.4,1.4,0,1,1-1.933,1.933A3.383,3.383,0,1,0,39.3,14.415" transform="translate(-28.081 -11.219)" fill="#030497"/>
</svg>
