<svg xmlns="http://www.w3.org/2000/svg" xmlns:xlink="http://www.w3.org/1999/xlink" width="43.278" height="32" viewBox="0 0 43.278 32">
  <defs>
    <clipPath id="clip-path">
      <rect id="사각형_14953" data-name="사각형 14953" width="43.278" height="32" fill="none"/>
    </clipPath>
  </defs>
  <g id="그룹_98108" data-name="그룹 98108" transform="translate(0 0)">
    <g id="그룹_98107" data-name="그룹 98107" transform="translate(0 0)" clip-path="url(#clip-path)">
      <path id="패스_82046" data-name="패스 82046" d="M49.1,18.884C49.1,11.493,42.42,5.5,34.173,5.5S19.24,11.493,19.24,18.884s6.685,13.384,14.933,13.384S49.1,26.276,49.1,18.884" transform="translate(-8.705 -2.801)" fill="#c6e5ff"/>
      <path id="패스_82047" data-name="패스 82047" d="M33.608,32.244c-8.612,0-15.617-6.279-15.617-14s7.006-14,15.617-14,15.617,6.279,15.617,14-7.006,14-15.617,14m0-26.767c-7.857,0-14.248,5.728-14.248,12.769s6.391,12.771,14.248,12.771,14.248-5.729,14.248-12.771S41.465,5.477,33.608,5.477" transform="translate(-8.14 -2.164)" fill="#3a4968"/>
      <path id="패스_82048" data-name="패스 82048" d="M48.381,22.762c0-5.327-4.819-9.646-10.762-9.646s-10.763,4.319-10.763,9.646,4.819,9.647,10.763,9.647,10.762-4.319,10.762-9.647" transform="translate(-12.151 -6.679)" fill="#fff"/>
      <path id="패스_82049" data-name="패스 82049" d="M37.054,32.385c-6.312,0-11.447-4.6-11.447-10.261s5.135-10.259,11.447-10.259S48.5,16.467,48.5,22.124,43.365,32.385,37.054,32.385m0-19.293c-5.557,0-10.078,4.052-10.078,9.032s4.521,9.034,10.078,9.034,10.077-4.052,10.077-9.034-4.521-9.032-10.077-9.032" transform="translate(-11.585 -6.042)" fill="#3a4968"/>
      <path id="패스_82050" data-name="패스 82050" d="M47.726,26.265c0-3.462-3.133-6.27-7-6.27s-7,2.807-7,6.27,3.132,6.27,7,6.27,7-2.806,7-6.27" transform="translate(-15.263 -10.182)" fill="#c6e5ff"/>
      <path id="패스_82051" data-name="패스 82051" d="M40.166,32.511c-4.235,0-7.68-3.088-7.68-6.884s3.445-6.883,7.68-6.883,7.68,3.088,7.68,6.883-3.445,6.884-7.68,6.884m0-12.54c-3.48,0-6.311,2.537-6.311,5.656s2.831,5.657,6.311,5.657,6.311-2.537,6.311-5.657-2.831-5.656-6.311-5.656" transform="translate(-14.698 -9.545)" fill="#3a4968"/>
      <path id="패스_82052" data-name="패스 82052" d="M47.083,29.708a3.313,3.313,0,0,0-6.586,0,3.313,3.313,0,0,0,6.586,0" transform="translate(-18.322 -13.625)" fill="#fff"/>
      <path id="패스_82053" data-name="패스 82053" d="M43.225,32.636a3.793,3.793,0,0,1-3.978-3.565,4,4,0,0,1,7.956,0,3.793,3.793,0,0,1-3.978,3.565m0-5.9a2.488,2.488,0,0,0-2.609,2.338,2.625,2.625,0,0,0,5.218,0,2.487,2.487,0,0,0-2.609-2.338" transform="translate(-17.757 -12.988)" fill="#3a4968"/>
      <path id="패스_82054" data-name="패스 82054" d="M1.25,54.684V53.038c0-4.026,3.933-7.288,8.782-7.288h2.561c4.85,0,8.781,3.263,8.781,7.288v1.645" transform="translate(-0.566 -23.297)" fill="#fff"/>
      <path id="패스_82055" data-name="패스 82055" d="M20.809,54.661a.652.652,0,0,1-.684-.613V52.4c0-3.681-3.633-6.675-8.1-6.675H9.466c-4.465,0-8.1,2.994-8.1,6.675v1.645a.652.652,0,0,1-.684.613A.652.652,0,0,1,0,54.047V52.4c0-4.357,4.247-7.9,9.466-7.9h2.561c5.219,0,9.466,3.545,9.466,7.9v1.645a.652.652,0,0,1-.684.613" transform="translate(0 -22.661)" fill="#3a4968"/>
      <path id="패스_82056" data-name="패스 82056" d="M20.479,25.689c0,3.217-2.2,5.824-4.9,5.824s-4.905-2.607-4.905-5.824a4.642,4.642,0,0,1,4.905-4.945,4.642,4.642,0,0,1,4.9,4.945" transform="translate(-4.827 -10.563)" fill="#fff"/>
      <path id="패스_82057" data-name="패스 82057" d="M15.009,31.49c-3.082,0-5.59-2.888-5.59-6.437a5.286,5.286,0,0,1,5.59-5.559A5.285,5.285,0,0,1,20.6,25.053c0,3.55-2.507,6.437-5.589,6.437m0-10.769a4.008,4.008,0,0,0-4.221,4.332c0,2.873,1.893,5.211,4.221,5.211s4.22-2.337,4.22-5.211a4.008,4.008,0,0,0-4.22-4.332" transform="translate(-4.261 -9.927)" fill="#3a4968"/>
      <path id="패스_82058" data-name="패스 82058" d="M64.205,1.25,59.544,5.427l1.618,3.325,4.661-4.178Z" transform="translate(-26.939 -0.637)" fill="#fff"/>
      <path id="패스_82059" data-name="패스 82059" d="M60.6,8.729a.8.8,0,0,1-.128-.01.676.676,0,0,1-.5-.358L58.351,5.036a.568.568,0,0,1,.143-.679L63.156.179A.738.738,0,0,1,63.767.01a.676.676,0,0,1,.5.358l1.618,3.324a.567.567,0,0,1-.143.679L61.08,8.55a.729.729,0,0,1-.484.18m-.8-3.8,1.03,2.117L64.443,3.8l-1.03-2.116Z" transform="translate(-26.374 0)" fill="#3a4968"/>
      <path id="패스_82060" data-name="패스 82060" d="M70.869,9.474l-3.71-1.45L62.5,12.2l3.71,1.45Z" transform="translate(-28.276 -4.086)" fill="#fff"/>
      <path id="패스_82061" data-name="패스 82061" d="M65.643,13.629a.754.754,0,0,1-.274-.051l-3.71-1.45a.63.63,0,0,1-.4-.449.575.575,0,0,1,.189-.548L66.11,6.953a.742.742,0,0,1,.758-.129l3.71,1.45a.631.631,0,0,1,.4.448.575.575,0,0,1-.189.548l-4.661,4.178a.728.728,0,0,1-.484.18m-2.516-2.266,2.362.924L69.11,9.04l-2.362-.924Z" transform="translate(-27.711 -3.449)" fill="#3a4968"/>
      <path id="패스_82062" data-name="패스 82062" d="M45.454,19.856a.725.725,0,0,1-.484-.18.569.569,0,0,1,0-.868L59.1,6.149a.742.742,0,0,1,.968,0,.571.571,0,0,1,0,.868L45.938,19.677a.722.722,0,0,1-.484.18" transform="translate(-20.255 -3.04)" fill="#3a4968"/>
    </g>
  </g>
</svg>
