<svg id="icon_calendar" xmlns="http://www.w3.org/2000/svg" width="24" height="24" viewBox="0 0 24 24">
  <rect id="사각형_6589" data-name="사각형 6589" width="24" height="24" fill="#fff" opacity="0"/>
  <path id="calendar-alt" d="M4.955,9.643H3.616a.4.4,0,0,1-.4-.4V7.9a.4.4,0,0,1,.4-.4H4.955a.4.4,0,0,1,.4.4V9.241A.4.4,0,0,1,4.955,9.643Zm3.616-.4V7.9a.4.4,0,0,0-.4-.4H6.83a.4.4,0,0,0-.4.4V9.241a.4.4,0,0,0,.4.4H8.17A.4.4,0,0,0,8.571,9.241Zm3.214,0V7.9a.4.4,0,0,0-.4-.4H10.045a.4.4,0,0,0-.4.4V9.241a.4.4,0,0,0,.4.4h1.339A.4.4,0,0,0,11.786,9.241ZM8.571,12.455V11.116a.4.4,0,0,0-.4-.4H6.83a.4.4,0,0,0-.4.4v1.339a.4.4,0,0,0,.4.4H8.17A.4.4,0,0,0,8.571,12.455Zm-3.214,0V11.116a.4.4,0,0,0-.4-.4H3.616a.4.4,0,0,0-.4.4v1.339a.4.4,0,0,0,.4.4H4.955A.4.4,0,0,0,5.357,12.455Zm6.429,0V11.116a.4.4,0,0,0-.4-.4H10.045a.4.4,0,0,0-.4.4v1.339a.4.4,0,0,0,.4.4h1.339A.4.4,0,0,0,11.786,12.455ZM15,3.75V15.536a1.608,1.608,0,0,1-1.607,1.607H1.607A1.608,1.608,0,0,1,0,15.536V3.75A1.608,1.608,0,0,1,1.607,2.143H3.214V.4a.4.4,0,0,1,.4-.4H4.955a.4.4,0,0,1,.4.4V2.143H9.643V.4a.4.4,0,0,1,.4-.4h1.339a.4.4,0,0,1,.4.4V2.143h1.607A1.608,1.608,0,0,1,15,3.75ZM13.393,15.335V5.357H1.607v9.978a.2.2,0,0,0,.2.2H13.192A.2.2,0,0,0,13.393,15.335Z" transform="translate(4.199 4)" fill="#1e38a7"/>
</svg>
