<svg xmlns="http://www.w3.org/2000/svg" xmlns:xlink="http://www.w3.org/1999/xlink" width="39.178" height="32" viewBox="0 0 39.178 32">
  <defs>
    <clipPath id="clip-path">
      <rect id="사각형_14951" data-name="사각형 14951" width="39.178" height="32" fill="none"/>
    </clipPath>
  </defs>
  <g id="그룹_98101" data-name="그룹 98101" transform="translate(0 0)">
    <g id="그룹_98100" data-name="그룹 98100" transform="translate(0 0)" clip-path="url(#clip-path)">
      <path id="패스_82027" data-name="패스 82027" d="M28.492,40.721H22.181v-3.8c0-4.671-4.089-8.459-9.133-8.459H10.384c-5.044,0-9.134,3.787-9.134,8.459v6.309a2.506,2.506,0,0,0,2.506,2.505H28.492a2.506,2.506,0,1,0,0-5.011" transform="translate(-0.63 -14.352)" fill="#fff"/>
      <path id="패스_82028" data-name="패스 82028" d="M27.861,45.721H3.125A3.129,3.129,0,0,1,0,42.6V36.287c0-5.006,4.376-9.078,9.753-9.078h2.664c5.378,0,9.753,4.073,9.753,9.078v3.183h5.691a3.125,3.125,0,0,1,0,6.251M9.753,28.448c-4.695,0-8.514,3.517-8.514,7.839V42.6a1.888,1.888,0,0,0,1.886,1.886H27.861a1.886,1.886,0,1,0,0-3.772H21.551a.619.619,0,0,1-.62-.62v-3.8c0-4.322-3.819-7.839-8.514-7.839Z" transform="translate(0 -13.721)" fill="#3a4968"/>
      <path id="패스_82029" data-name="패스 82029" d="M8.181,53.315a.62.62,0,0,1-.62-.62V42.886a.62.62,0,1,1,1.239,0V52.7a.62.62,0,0,1-.62.62" transform="translate(-3.813 -21.315)" fill="#3a4968"/>
      <path id="패스_82030" data-name="패스 82030" d="M35.068,53.315a.62.62,0,0,1-.62-.62V42.886a.62.62,0,1,1,1.239,0V52.7a.62.62,0,0,1-.62.62" transform="translate(-17.372 -21.315)" fill="#3a4968"/>
      <path id="패스_82031" data-name="패스 82031" d="M22.274,6.987c0,3.734-2.284,6.761-5.1,6.761s-5.1-3.027-5.1-6.761,2.284-5.737,5.1-5.737,5.1,2.005,5.1,5.737" transform="translate(-6.087 -0.63)" fill="#fff"/>
      <path id="패스_82032" data-name="패스 82032" d="M16.542,13.737c-3.155,0-5.721-3.311-5.721-7.38C10.821,1.966,13.694,0,16.542,0s5.721,1.966,5.721,6.357c0,4.07-2.567,7.38-5.721,7.38m0-12.5c-2.722,0-4.482,2.009-4.482,5.118,0,3.386,2.011,6.141,4.482,6.141s4.482-2.755,4.482-6.141c0-3.109-1.759-5.118-4.482-5.118" transform="translate(-5.457 0)" fill="#3a4968"/>
      <path id="패스_82033" data-name="패스 82033" d="M59.542,25.511a1.87,1.87,0,0,0-.635-.5l2.705-2.18-2.694-3.342a1.853,1.853,0,1,1-2.032-2.52l-3.157-3.914-2.718,2.192a1.853,1.853,0,1,0-2.579,2.078l-2.718,2.192,3.246,4.027a1.833,1.833,0,0,0-1.106.407,1.852,1.852,0,1,0,2.958,1.889L53.6,29.291,56.3,27.109a1.852,1.852,0,1,0,3.241-1.6" transform="translate(-23.054 -6.582)" fill="#c6e5ff"/>
      <path id="패스_82034" data-name="패스 82034" d="M52.966,29.281a.587.587,0,0,1-.066,0,.617.617,0,0,1-.416-.228l-2.19-2.716a2.436,2.436,0,0,1-.356.351,2.471,2.471,0,1,1-2.684-4.121L44.6,19.274a.62.62,0,0,1,.093-.871l2.09-1.685c-.045-.047-.088-.1-.129-.147A2.472,2.472,0,1,1,50.5,13.466c.042.052.081.1.118.159l2.089-1.684a.621.621,0,0,1,.871.093l3.156,3.913a.62.62,0,0,1-.378,1,1.232,1.232,0,0,0-.748,1.988,1.261,1.261,0,0,0,1.733.186,1.212,1.212,0,0,0,.368-.5.62.62,0,0,1,1.057-.157l2.694,3.342a.62.62,0,0,1-.093.871l-2.088,1.683c.038.041.075.083.111.127a2.472,2.472,0,1,1-3.848,3.1c-.036-.044-.07-.09-.1-.136l-2.088,1.684a.618.618,0,0,1-.389.138m-2.784-4.693a.618.618,0,0,1,.482.231l2.4,2.971L55.282,26a.619.619,0,0,1,.991.339,1.227,1.227,0,0,0,1.2.941h0a1.233,1.233,0,0,0,.959-2.007,1.237,1.237,0,0,0-.424-.334.62.62,0,0,1-.118-1.04L60.11,22.1,58.33,19.9a2.463,2.463,0,0,1-1.758.736,2.472,2.472,0,0,1-1.553-4.4,2.608,2.608,0,0,1,.228-.163l-2.242-2.779L50.77,15.1a.619.619,0,0,1-.994-.349,1.221,1.221,0,0,0-.237-.505,1.262,1.262,0,0,0-1.732-.185,1.235,1.235,0,0,0-.186,1.734,1.206,1.206,0,0,0,.44.338.619.619,0,0,1,.132,1.045l-2.236,1.8,2.857,3.544a.62.62,0,0,1-.465,1.008,1.213,1.213,0,0,0-.735.269,1.233,1.233,0,0,0-.186,1.733,1.261,1.261,0,0,0,1.733.186,1.219,1.219,0,0,0,.42-.661.62.62,0,0,1,.467-.456.647.647,0,0,1,.134-.014" transform="translate(-22.423 -5.952)" fill="#3a4968"/>
    </g>
  </g>
</svg>
