<svg xmlns="http://www.w3.org/2000/svg" width="24" height="24" viewBox="0 0 24 24">
  <g id="그룹_98838" data-name="그룹 98838" transform="translate(-608 -654)">
    <rect id="사각형_15464" data-name="사각형 15464" width="24" height="24" transform="translate(608 654)" fill="#fff" opacity="0"/>
    <path id="합치기_750" data-name="합치기 750" d="M7.8,12.705a12.852,12.852,0,0,1-3.076-1.283A13.077,13.077,0,0,1,.074,6.847a.517.517,0,0,1,0-.534A13.068,13.068,0,0,1,3.4,2.617l.77.718A11.992,11.992,0,0,0,1.127,6.581,12.056,12.056,0,0,0,5.24,10.526,11.936,11.936,0,0,0,8.07,11.707a11.973,11.973,0,0,0,3.147.418,12,12,0,0,0,2.166-.2l.923.861a13.032,13.032,0,0,1-3.09.37A12.986,12.986,0,0,1,7.8,12.705Zm9.014-.093L5.072,1.666A.777.777,0,1,1,6.132.529l11.74,10.948a.777.777,0,0,1-1.059,1.136ZM18.094,9.95a12.165,12.165,0,0,0,1.771-1.527,12.072,12.072,0,0,0,1.443-1.841,12.041,12.041,0,0,0-4.114-3.945,11.831,11.831,0,0,0-2.83-1.182A12.017,12.017,0,0,0,8.8,1.281L7.887.431A12.988,12.988,0,0,1,22.361,6.313a.517.517,0,0,1,0,.534A13.029,13.029,0,0,1,20.8,8.934a13.128,13.128,0,0,1-1.937,1.735Z" transform="translate(609 659.125)" fill="#2c395e"/>
  </g>
</svg>
