<svg xmlns="http://www.w3.org/2000/svg" width="16" height="15.937" viewBox="0 0 16 15.937">
  <g id="패스_82289" data-name="패스 82289" transform="translate(0 -0.001)" fill="#edf1f6" stroke-linecap="round">
    <path d="M 13.33333015441895 15.18750286102295 L 2.666670083999634 15.18750286102295 C 1.609809994697571 15.18750286102295 0.75 14.33241271972656 0.75 13.2813720703125 L 0.75 2.656872510910034 C 0.75 1.605832457542419 1.609809994697571 0.7507424354553223 2.666670083999634 0.7507424354553223 L 5.602540016174316 0.7507424354553223 C 6.005420207977295 0.7507424354553223 6.213880062103271 0.818092405796051 6.274630069732666 0.8811224102973938 C 6.339779853820801 0.9487224221229553 6.385690212249756 1.152822375297546 6.430089950561523 1.350202441215515 C 6.44566011428833 1.419432401657104 6.461420059204102 1.489282369613647 6.478690147399902 1.559172391891479 C 6.641910076141357 2.219902515411377 6.750589847564697 2.790802478790283 6.751669883728027 2.796492338180542 L 6.867380142211914 3.406792402267456 L 7.488560199737549 3.406872510910034 L 13.33333015441895 3.406872510910034 C 14.39019012451172 3.406872510910034 15.25 4.26195240020752 15.25 5.312992572784424 L 15.25 13.2813720703125 C 15.25 14.33241271972656 14.39019012451172 15.18750286102295 13.33333015441895 15.18750286102295 Z" stroke="none"/>
    <path d="M 2.666669845581055 1.500741958618164 C 2.023369789123535 1.500741958618164 1.5 2.019382476806641 1.5 2.656872749328613 L 1.5 13.2813720703125 C 1.5 13.91886234283447 2.023369789123535 14.43750190734863 2.666669845581055 14.43750190734863 L 13.33333015441895 14.43750190734863 C 13.97663021087646 14.43750190734863 14.5 13.91886234283447 14.5 13.2813720703125 L 14.5 5.312992095947266 C 14.5 4.675502777099609 13.97663021087646 4.156872749328613 13.33333015441895 4.156872749328613 L 6.2464599609375 4.156532287597656 L 6.014809608459473 2.936282157897949 C 6.01377010345459 2.93077278137207 5.908359527587891 2.377752304077148 5.750579833984375 1.739042282104492 C 5.732049942016602 1.664042472839355 5.715080261230469 1.589082717895508 5.698369979858398 1.514792442321777 C 5.697453498840332 1.51071834564209 5.696521759033203 1.506573677062988 5.695576667785645 1.502376556396484 C 5.667637825012207 1.501348495483398 5.636677742004395 1.500741958618164 5.602540016174316 1.500741958618164 L 2.666669845581055 1.500741958618164 M 2.666669845581055 0.0007419586181640625 C 2.666669845581055 0.0007419586181640625 4.176030158996582 0.0007419586181640625 5.602540016174316 0.0007419586181640625 C 7.029049873352051 0.0007419586181640625 7.036149978637695 0.688532829284668 7.20680046081543 1.379292488098145 C 7.377440452575684 2.070042610168457 7.488559722900391 2.656872749328613 7.488559722900391 2.656872749328613 L 13.33333015441895 2.656872749328613 C 14.80609035491943 2.656872749328613 16 3.846062660217285 16 5.312992095947266 L 16 13.2813720703125 C 16 14.74831199645996 14.80609035491943 15.93750286102295 13.33333015441895 15.93750286102295 L 2.666669845581055 15.93750286102295 C 1.193909645080566 15.93750286102295 0 14.74831199645996 0 13.2813720703125 L 0 2.656872749328613 C 0 1.189932823181152 1.193909645080566 0.0007419586181640625 2.666669845581055 0.0007419586181640625 Z" stroke="none" fill="#000"/>
  </g>
</svg>
