<svg xmlns="http://www.w3.org/2000/svg" xmlns:xlink="http://www.w3.org/1999/xlink" width="54" height="54" viewBox="0 0 54 54">
  <defs>
    <linearGradient id="linear-gradient" x1="0.5" x2="0.5" y2="1" gradientUnits="objectBoundingBox">
      <stop offset="0" stop-color="#fff"/>
      <stop offset="1" stop-color="#d9e3ef"/>
    </linearGradient>
  </defs>
  <g id="그룹_99662" data-name="그룹 99662" transform="translate(-317 -839)">
    <g id="타원_941" data-name="타원 941" transform="translate(317 839)" fill="#d9e3ef" stroke="#f2f2f2" stroke-width="1">
      <circle cx="27" cy="27" r="27" stroke="none"/>
      <circle cx="27" cy="27" r="26.5" fill="none"/>
    </g>
    <g id="그룹_99609" data-name="그룹 99609" transform="translate(-416.463 460.5)">
      <g id="Roadblock-06" transform="translate(746 395)">
        <path id="패스_95198" data-name="패스 95198" d="M0,0H16V6H0Z" transform="translate(7.463 2.5)" fill="#ffd579"/>
        <path id="패스_95195" data-name="패스 95195" d="M-2.228,0H1.216L3.783,6H0Z" transform="translate(7.463 2.5)" fill="#4a96ff"/>
        <path id="패스_95196" data-name="패스 95196" d="M-2.228,0H1.216L3.783,6H0Z" transform="translate(14.685 2.433)" fill="#4a96ff"/>
        <path id="패스_95197" data-name="패스 95197" d="M-2.228,0H1.216L3.783,6H0Z" transform="translate(21.685 2.501)" fill="#4a96ff"/>
        <path id="패스_95181" data-name="패스 95181" d="M10.939,29.455H5.1V12.294A2.893,2.893,0,0,1,7.994,9.4h0a2.893,2.893,0,0,1,2.894,2.894Z" transform="translate(-3.577 -9.4)" stroke="#282525" stroke-linecap="round" stroke-linejoin="round" stroke-width="1" fill="url(#linear-gradient)"/>
        <rect id="사각형_80182" data-name="사각형 80182" width="8.885" height="2.945" transform="translate(0 20.055)" stroke="#282525" stroke-linecap="round" stroke-linejoin="round" stroke-width="1" fill="url(#linear-gradient)"/>
        <path id="패스_95182" data-name="패스 95182" d="M47.4,29.455h5.839V12.294A2.893,2.893,0,0,0,50.345,9.4h0a2.893,2.893,0,0,0-2.894,2.894Z" transform="translate(-24.401 -9.4)" stroke="#282525" stroke-linecap="round" stroke-linejoin="round" stroke-width="1" fill="url(#linear-gradient)"/>
        <rect id="사각형_80183" data-name="사각형 80183" width="8.885" height="2.945" transform="translate(30.37 22.976) rotate(180)" stroke="#282525" stroke-linecap="round" stroke-linejoin="round" stroke-width="1" fill="url(#linear-gradient)"/>
        <line id="선_461" data-name="선 461" x1="15.638" transform="translate(7.362 8.073)" fill="none" stroke="#282525" stroke-linecap="round" stroke-linejoin="round" stroke-width="1"/>
        <line id="선_462" data-name="선 462" x1="15.638" transform="translate(7.362 2.792)" fill="none" stroke="#282525" stroke-linecap="round" stroke-linejoin="round" stroke-width="1"/>
        <circle id="타원_913" data-name="타원 913" cx="1.32" cy="1.32" r="1.32" transform="translate(3.097 3.3)" fill="none" stroke="#282525" stroke-linecap="round" stroke-linejoin="round" stroke-width="1"/>
        <circle id="타원_914" data-name="타원 914" cx="1.32" cy="1.32" r="1.32" transform="translate(24.624 3.3)" fill="none" stroke="#282525" stroke-linecap="round" stroke-linejoin="round" stroke-width="1"/>
        <line id="선_463" data-name="선 463" x2="2.234" y2="5.28" transform="translate(8.733 2.792)" fill="none" stroke="#282525" stroke-linecap="round" stroke-linejoin="round" stroke-width="1"/>
        <line id="선_464" data-name="선 464" x2="2.234" y2="5.28" transform="translate(12.287 2.792)" fill="none" stroke="#282525" stroke-linecap="round" stroke-linejoin="round" stroke-width="1"/>
        <line id="선_465" data-name="선 465" x2="2.234" y2="5.28" transform="translate(15.841 2.792)" fill="none" stroke="#282525" stroke-linecap="round" stroke-linejoin="round" stroke-width="1"/>
        <line id="선_466" data-name="선 466" x2="2.234" y2="5.28" transform="translate(19.395 2.792)" fill="none" stroke="#282525" stroke-linecap="round" stroke-linejoin="round" stroke-width="1"/>
      </g>
      <rect id="사각형_80184" data-name="사각형 80184" width="32.37" height="24.871" transform="translate(745 394.152)" fill="rgba(255,255,255,0)"/>
    </g>
  </g>
</svg>
