<svg xmlns="http://www.w3.org/2000/svg" width="24" height="24.001" viewBox="0 0 24 24.001">
  <g id="그룹_98902" data-name="그룹 98902" transform="translate(-1671 -22)">
    <rect id="사각형_15478" data-name="사각형 15478" width="24" height="24.001" transform="translate(1671 22)" fill="#898989" opacity="0"/>
    <path id="합치기_824" data-name="합치기 824" d="M9528.926,19241.664a.925.925,0,0,1-.749-1.469l.029-.043,2.661-2.348v-4.109a8.65,8.65,0,0,1,1.694-5.395,6.446,6.446,0,0,1,9.876,0,8.62,8.62,0,0,1,1.694,5.395v4.109l2.661,2.348.034.043a.929.929,0,0,1-.749,1.469Zm5.022-12.146a6.853,6.853,0,0,0-1.231,4.178v4.471a.951.951,0,0,1-.174.541l-.044.055-1.313,1.047h12.633l-1.318-1.047-.039-.055a.916.916,0,0,1-.174-.541v-4.471a6.861,6.861,0,0,0-1.235-4.178,4.619,4.619,0,0,0-7.1,0Z" transform="translate(-7854.282 -19202.273)" fill="#898989"/>
    <path id="합치기_825" data-name="합치기 825" d="M9528,19226.912a.912.912,0,0,1,1.824,0,1.127,1.127,0,1,0,2.254,0,.912.912,0,0,1,1.824,0,2.951,2.951,0,1,1-5.9,0Z" transform="translate(-7847.735 -19186.25)" fill="#898989"/>
  </g>
</svg>
