<svg xmlns="http://www.w3.org/2000/svg" width="16" height="15.937" viewBox="0 0 16 15.937">
  <g id="패스_82732" data-name="패스 82732" transform="translate(0 -0.001)" fill="#eff3f8">
    <path d="M 13.33333015441895 15.43750286102295 L 2.666670083999634 15.43750286102295 C 1.471959948539734 15.43750286102295 0.5 14.47026252746582 0.5 13.2813720703125 L 0.5 2.656872510910034 C 0.5 1.467982411384583 1.471959948539734 0.5007424354553223 2.666670083999634 0.5007424354553223 L 5.602540016174316 0.5007424354553223 C 6.035639762878418 0.5007424354553223 6.322319984436035 0.5703524351119995 6.454629898071289 0.7076424360275269 C 6.568329811096191 0.8256124258041382 6.617300033569336 1.04329240322113 6.673989772796631 1.295342445373535 C 6.68917989730835 1.362872362136841 6.704549789428711 1.43102240562439 6.721389770507812 1.499212384223938 C 6.886439800262451 2.167302370071411 6.996210098266602 2.744182348251343 6.997300148010254 2.749932527542114 L 7.074409961700439 3.156832456588745 L 7.488560199737549 3.156872510910034 L 13.33333015441895 3.156872510910034 C 14.52803993225098 3.156872510910034 15.5 4.124102592468262 15.5 5.312992572784424 L 15.5 13.2813720703125 C 15.5 14.47026252746582 14.52803993225098 15.43750286102295 13.33333015441895 15.43750286102295 Z" stroke="none"/>
    <path d="M 2.666669845581055 1.000741958618164 C 1.74767017364502 1.000741958618164 1 1.743682861328125 1 2.656872749328613 L 1 13.2813720703125 C 1 14.1945629119873 1.74767017364502 14.93750190734863 2.666669845581055 14.93750190734863 L 13.33333015441895 14.93750190734863 C 14.25232982635498 14.93750190734863 15 14.1945629119873 15 13.2813720703125 L 15 5.312992095947266 C 15 4.399802207946777 14.25232982635498 3.656872749328613 13.33333015441895 3.656872749328613 L 6.660369873046875 3.656722068786621 L 6.506050109863281 2.843071937561035 C 6.504980087280273 2.837442398071289 6.397390365600586 2.272512435913086 6.235989570617676 1.619132041931152 C 6.218299865722656 1.547532081604004 6.202130317687988 1.475982666015625 6.186180114746094 1.405062675476074 C 6.160969734191895 1.292986869812012 6.124140739440918 1.129275321960449 6.093733787536621 1.060643196105957 C 6.049227714538574 1.042638778686523 5.912342071533203 1.000741958618164 5.602540016174316 1.000741958618164 L 2.666669845581055 1.000741958618164 M 2.666669845581055 0.0007419586181640625 C 2.666669845581055 0.0007419586181640625 4.176030158996582 0.0007419586181640625 5.602540016174316 0.0007419586181640625 C 7.029049873352051 0.0007419586181640625 7.036149978637695 0.688532829284668 7.20680046081543 1.379292488098145 C 7.377440452575684 2.070042610168457 7.488559722900391 2.656872749328613 7.488559722900391 2.656872749328613 L 13.33333015441895 2.656872749328613 C 14.80609035491943 2.656872749328613 16 3.846062660217285 16 5.312992095947266 L 16 13.2813720703125 C 16 14.74831199645996 14.80609035491943 15.93750286102295 13.33333015441895 15.93750286102295 L 2.666669845581055 15.93750286102295 C 1.193909645080566 15.93750286102295 0 14.74831199645996 0 13.2813720703125 L 0 2.656872749328613 C 0 1.189932823181152 1.193909645080566 0.0007419586181640625 2.666669845581055 0.0007419586181640625 Z" stroke="none" fill="#707070"/>
  </g>
</svg>
