<svg xmlns="http://www.w3.org/2000/svg" width="23.71" height="21.734" viewBox="0 0 23.71 21.734">
  <g id="그룹_98453" data-name="그룹 98453" transform="translate(-771.833 -676)">
    <path id="합치기_786" data-name="합치기 786" d="M6.672,21.734a.627.627,0,0,1-.619-.635V19.253c0-.2-.052-.393-.435-.393-2.658,0-3.374-.85-3.509-1.559a11.642,11.642,0,0,1-.028-2.812A12.834,12.834,0,0,1,.73,13.805a1.383,1.383,0,0,1-.712-.966,1.809,1.809,0,0,1,.459-1.393,8.034,8.034,0,0,0,1.6-2.683A8.774,8.774,0,0,1,10.747,0a9.491,9.491,0,0,1,3.691.7,7.522,7.522,0,0,1,2.684,1.871c.114-.008.229-.012.343-.012a6.138,6.138,0,0,1,4.292,1.755,6.462,6.462,0,0,1,.069,9.189,2.631,2.631,0,0,0-.8,1.867V16.53a.615.615,0,0,1-.607.618H14.494a.613.613,0,0,1-.605-.618v-1.1a2.641,2.641,0,0,0-.763-1.886,6.43,6.43,0,0,1,2.5-10.707,6.678,6.678,0,0,0-4.877-1.576A7.519,7.519,0,0,0,3.315,8.845a.569.569,0,0,1-.009.125l0,0A8.369,8.369,0,0,1,1.42,12.259a.692.692,0,0,0-.182.364.312.312,0,0,0,.112.087,13.315,13.315,0,0,0,1.618.788h0a.633.633,0,0,1,.388.671,12.593,12.593,0,0,0-.034,2.895c.034.179.763.531,2.292.531a1.577,1.577,0,0,1,1.674,1.658v1.215h4.678a.633.633,0,0,1,0,1.265ZM17.176,3.8a5.12,5.12,0,0,0-4.763,4.969,5.19,5.19,0,0,0,1.548,3.877A3.9,3.9,0,0,1,15.1,15.43v.481h4.706v-.546a3.891,3.891,0,0,1,1.173-2.749A5.218,5.218,0,0,0,20.923,5.2a4.969,4.969,0,0,0-3.462-1.41C17.363,3.795,17.269,3.8,17.176,3.8ZM7.532,15.812v-.4H7.139a.238.238,0,0,1,0-.476h.394v-.4a.236.236,0,1,1,.472,0v.4h.39a.238.238,0,0,1,0,.476H8v.4a.236.236,0,1,1-.472,0Zm3.649-1.643A8.039,8.039,0,0,1,9.9,6.237a.233.233,0,0,1,.306-.137.238.238,0,0,1,.129.311,7.592,7.592,0,0,0,1.2,7.452.246.246,0,0,1-.03.339.227.227,0,0,1-.148.054A.223.223,0,0,1,11.182,14.169Zm5.788-1.215a.213.213,0,0,1-.171-.179l-.18-1.132c-.036-.016-.073-.029-.1-.045l-.915.671a.2.2,0,0,1-.244,0,3.823,3.823,0,0,1-.877-.9.219.219,0,0,1,0-.249l.66-.934c-.013-.033-.028-.07-.045-.107l-1.11-.178a.219.219,0,0,1-.174-.179,3.731,3.731,0,0,1,0-1.269.218.218,0,0,1,.174-.178L15.1,8.1c.017-.037.032-.076.045-.113l-.66-.925a.219.219,0,0,1,0-.249,3.807,3.807,0,0,1,.877-.9.2.2,0,0,1,.244,0l.915.676c.036-.016.071-.033.1-.046l.18-1.136a.207.207,0,0,1,.171-.178,3.685,3.685,0,0,1,1.246,0,.209.209,0,0,1,.171.178l.178,1.136c.034.012.069.03.107.046l.905-.676a.219.219,0,0,1,.253,0,3.792,3.792,0,0,1,.873.9.216.216,0,0,1,0,.249l-.664.925a.942.942,0,0,1,.045.113l1.115.178a.218.218,0,0,1,.174.178,4.3,4.3,0,0,1,.052.635,4.351,4.351,0,0,1-.052.634.219.219,0,0,1-.174.179l-1.115.178a.64.64,0,0,1-.045.107l.664.934a.216.216,0,0,1,0,.249,3.844,3.844,0,0,1-.873.9.216.216,0,0,1-.253,0l-.905-.671-.107.045-.178,1.132a.216.216,0,0,1-.171.179,3.93,3.93,0,0,1-1.246,0Zm-.384-1.8a1.536,1.536,0,0,0,.291.124.211.211,0,0,1,.137.17l.176,1.1a3.262,3.262,0,0,0,.808,0l.174-1.1a.217.217,0,0,1,.139-.17,1.947,1.947,0,0,0,.292-.124.206.206,0,0,1,.212.017l.89.655a3.506,3.506,0,0,0,.568-.58l-.643-.908a.235.235,0,0,1-.019-.22,1.958,1.958,0,0,0,.126-.295.208.208,0,0,1,.161-.144l1.081-.174a3.077,3.077,0,0,0,0-.83L19.9,8.505a.211.211,0,0,1-.161-.145,1.908,1.908,0,0,0-.126-.294.242.242,0,0,1,.019-.224l.643-.9a3.53,3.53,0,0,0-.568-.584l-.89.655a.206.206,0,0,1-.212.021,2.175,2.175,0,0,0-.292-.125.212.212,0,0,1-.139-.169L18,5.635a2.93,2.93,0,0,0-.808,0l-.176,1.1a.207.207,0,0,1-.137.169,2.019,2.019,0,0,0-.292.121.2.2,0,0,1-.216-.017l-.887-.655a3.663,3.663,0,0,0-.577.584l.647.9a.21.21,0,0,1,.015.224c-.045.095-.084.194-.12.294a.213.213,0,0,1-.163.145L14.2,8.679a3.858,3.858,0,0,0-.028.415,3.943,3.943,0,0,0,.028.415l1.078.174a.2.2,0,0,1,.163.144c.036.1.075.2.12.295a.2.2,0,0,1-.015.22l-.647.908a3.638,3.638,0,0,0,.577.58l.887-.655a.191.191,0,0,1,.122-.042A.2.2,0,0,1,16.585,11.159ZM21.17,9.695h0Zm-4.9-.6A1.324,1.324,0,1,1,17.6,10.447,1.334,1.334,0,0,1,16.27,9.094Zm.414,0a.908.908,0,1,0,.911-.926A.919.919,0,0,0,16.685,9.094ZM6.28,5.9V5.5H5.887a.241.241,0,0,1,0-.482H6.28V4.624a.234.234,0,0,1,.229-.241.239.239,0,0,1,.236.241v.394h.394a.241.241,0,0,1,0,.482H6.745v.4a.239.239,0,0,1-.236.24A.234.234,0,0,1,6.28,5.9Zm4.4-.755a.245.245,0,0,1-.066-.332,7.242,7.242,0,0,1,.544-.762.235.235,0,0,1,.334-.033.248.248,0,0,1,.03.339,7.309,7.309,0,0,0-.514.717.245.245,0,0,1-.2.113A.212.212,0,0,1,10.683,5.142ZM22.491,3.468v-.4H22.1a.239.239,0,0,1-.236-.24.236.236,0,0,1,.236-.237h.39v-.4a.236.236,0,1,1,.472,0v.4h.394a.233.233,0,0,1,.232.237.236.236,0,0,1-.232.24h-.394v.4a.236.236,0,1,1-.472,0ZM18.134,2.011v-.4h-.388a.241.241,0,0,1,0-.481h.388v-.4a.236.236,0,1,1,.472,0v.4H19a.241.241,0,0,1,0,.481h-.4v.4a.236.236,0,1,1-.472,0Z" transform="translate(771.833 676)" fill="#fff"/>
  </g>
</svg>
