<svg xmlns="http://www.w3.org/2000/svg" width="34" height="34" viewBox="0 0 34 34">
  <g id="그룹_98548" data-name="그룹 98548" transform="translate(-1740 -706)">
    <circle id="타원_12" data-name="타원 12" cx="17" cy="17" r="17" transform="translate(1740 706)" fill="#e5f0ff"/>
    <g id="그룹_98549" data-name="그룹 98549" transform="translate(1746 713)">
      <g id="그룹_98550" data-name="그룹 98550">
        <path id="패스_82692" data-name="패스 82692" d="M19.208,54.346a.7.7,0,0,0,0,1.4h4.459a.7.7,0,0,0,0-1.4Z" transform="translate(-13.786 -40.953)" fill="#28336e"/>
        <path id="패스_82693" data-name="패스 82693" d="M22.185,40.883c0-.385-.162-.7-.362-.7H18.871c-.2,0-.362.312-.362.7s.162.7.362.7h2.952c.2,0,.362-.312.362-.7" transform="translate(-12.695 -30.282)" fill="#28336e"/>
        <path id="패스_82694" data-name="패스 82694" d="M36.757,26.721a.7.7,0,0,0-.7-.7h-4.33a.7.7,0,1,0,0,1.4h4.33a.7.7,0,0,0,.7-.7" transform="translate(-22.577 -19.61)" fill="#28336e"/>
        <path id="패스_82695" data-name="패스 82695" d="M1.387,6.476H5a.746.746,0,0,0,.694-.789V1.578h8.689V6.858a1.545,1.545,0,0,1,1.075.542l.312.355V.789A.746.746,0,0,0,15.078,0H4.993a.6.6,0,0,0-.127.014c-.019,0-.036.013-.055.018A.628.628,0,0,0,4.737.06.689.689,0,0,0,4.677.1a.62.62,0,0,0-.06.036.73.73,0,0,0-.106.1L.2,5.129a.736.736,0,0,0-.078.109c-.007.011-.013.023-.019.034a.866.866,0,0,0-.043.091c0,.013-.01.025-.014.037a.881.881,0,0,0-.035.13v0A.9.9,0,0,0,0,5.671c0,.005,0,.01,0,.016V18.762a.746.746,0,0,0,.694.789H11.26V17.973H1.387Z" transform="translate(2.162)" fill="#28336e"/>
        <path id="패스_82696" data-name="패스 82696" d="M55.633,44.876,54.061,43.3a4.857,4.857,0,1,0-1.6,1.6l1.572,1.572a1.128,1.128,0,0,0,1.6-1.6M52.158,43a3.157,3.157,0,1,1,0-4.464,3.157,3.157,0,0,1,0,4.464" transform="translate(-33.963 -27.059)" fill="#28336e"/>
      </g>
    </g>
  </g>
</svg>
