<svg id="구성_요소_71" data-name="구성 요소 71" xmlns="http://www.w3.org/2000/svg" width="24" height="24" viewBox="0 0 24 24">
  <path id="lock-shield-svgrepo-com" d="M18.385,28.328a1.861,1.861,0,0,0,.808-.238C25.941,24.3,28.27,22.7,28.27,18.36V9.271c0-1.248-.547-1.64-1.545-2.067-1.4-.582-5.941-2.21-7.343-2.7a3.15,3.15,0,0,0-1-.178,4,4,0,0,0-.986.178c-1.4.428-5.941,2.127-7.343,2.7-1,.416-1.545.82-1.545,2.067V18.36c0,4.337,2.341,5.929,9.077,9.731A1.82,1.82,0,0,0,18.385,28.328Zm0-2.162a1.486,1.486,0,0,1-.737-.285c-5.489-3.327-7.248-4.3-7.248-7.96V9.627c0-.4.083-.558.4-.689,1.806-.713,5.287-1.949,7.117-2.6a1.281,1.281,0,0,1,.463-.107,1.337,1.337,0,0,1,.475.107c1.83.653,5.275,1.972,7.117,2.6.321.119.4.285.4.689V17.92c0,3.659-1.77,4.622-7.248,7.96A1.478,1.478,0,0,1,18.385,26.166Zm-2.958-4.61h5.917c.832,0,1.224-.416,1.224-1.307v-4.61c0-.784-.309-1.2-.939-1.283V12.942c0-2.186-1.307-3.659-3.244-3.659s-3.244,1.473-3.244,3.659v1.426c-.618.083-.927.5-.927,1.271v4.61C14.215,21.14,14.607,21.556,15.427,21.556Zm.951-8.745a2.03,2.03,0,1,1,4.016,0v1.521l-4.016.012Z" transform="translate(-6.512 -4.328)" fill="#6a75ca"/>
  <rect id="사각형_80193" data-name="사각형 80193" width="24" height="24" fill="#fff" opacity="0"/>
</svg>
