<svg xmlns="http://www.w3.org/2000/svg" xmlns:xlink="http://www.w3.org/1999/xlink" width="54" height="54" viewBox="0 0 54 54">
  <defs>
    <clipPath id="clip-path">
      <rect id="사각형_15094" data-name="사각형 15094" width="40.002" height="40.001" fill="none"/>
    </clipPath>
  </defs>
  <g id="그룹_98233" data-name="그룹 98233" transform="translate(-312 -275)">
    <g id="타원_868" data-name="타원 868" transform="translate(312 275)" fill="#efefef" stroke="#f2f2f2" stroke-width="1" opacity="0">
      <circle cx="27" cy="27" r="27" stroke="none"/>
      <circle cx="27" cy="27" r="26.5" fill="none"/>
    </g>
    <g id="그룹_98215" data-name="그룹 98215" transform="translate(319.498 284.499)">
      <g id="그룹_98214" data-name="그룹 98214" clip-path="url(#clip-path)">
        <path id="패스_82290" data-name="패스 82290" d="M12.548,39.835V36.311A1.857,1.857,0,0,0,10.5,34.35c-1.438,0-5.308-.173-5.654-2A23.965,23.965,0,0,1,4.9,26.442a27.47,27.47,0,0,1-3.328-1.581c-1.515-.878-.542-2.249-.176-2.682C4.333,18.7,4.8,16.434,4.8,16.434a15.684,15.684,0,1,1,29.29,7.807v0c-1.323,2.293-3.064,4.79-3.893,6.618-1.22,2.692-1.277,8.978-1.277,8.978Z" transform="translate(-0.292 -0.292)" fill="#fff"/>
        <path id="패스_82291" data-name="패스 82291" d="M46.787,15.987A15.688,15.688,0,0,0,28.035,1.054,15.807,15.807,0,0,1,40.68,15.987a15.623,15.623,0,0,1-2.072,8.254v0c-1.323,2.293-3.064,4.79-3.893,6.618-1.22,2.692-1.277,8.978-1.277,8.978h6.108s.057-6.287,1.276-8.978c.829-1.828,2.569-4.326,3.893-6.618v0a15.624,15.624,0,0,0,2.073-8.254" transform="translate(-10.914 -0.292)" fill="#94c9ff"/>
        <path id="패스_82292" data-name="패스 82292" d="M28.632,40H12.256a.458.458,0,0,1-.458-.458V36.018a1.41,1.41,0,0,0-1.592-1.5c-2.112,0-5.712-.308-6.1-2.368a22.622,22.622,0,0,1,.011-5.7,27.035,27.035,0,0,1-3.061-1.479A1.918,1.918,0,0,1,.026,23.638a2.674,2.674,0,0,1,.729-2.047,15.4,15.4,0,0,0,3.3-5.5A16.141,16.141,0,0,1,20.426,0,16.146,16.146,0,0,1,34.2,24.177l-.014.022c-.489.845-1.034,1.719-1.562,2.565a38.65,38.65,0,0,0-2.3,3.989c-1.166,2.574-1.236,8.732-1.237,8.794a.458.458,0,0,1-.458.454m-15.918-.916H28.183c.038-1.514.244-6.358,1.309-8.71a39.3,39.3,0,0,1,2.354-4.1c.529-.848,1.075-1.723,1.56-2.562l.012-.02A15.227,15.227,0,1,0,4.969,16.142a.474.474,0,0,1-.009.093c-.021.1-.529,2.42-3.506,5.946a1.916,1.916,0,0,0-.526,1.3,1.047,1.047,0,0,0,.583.692,27.256,27.256,0,0,0,3.264,1.55.457.457,0,0,1,.289.487A23.635,23.635,0,0,0,5,31.976c.228,1.2,2.947,1.624,5.2,1.624a2.309,2.309,0,0,1,2.508,2.419Z" transform="translate(0 0)" fill="#223f73"/>
        <path id="패스_82293" data-name="패스 82293" d="M54.235,49.916a.459.459,0,0,1-.458-.458.455.455,0,0,1,.781-.324.478.478,0,0,1,.135.324.456.456,0,0,1-.135.324.478.478,0,0,1-.323.134" transform="translate(-20.935 -19.079)" fill="#223f73"/>
        <path id="패스_82294" data-name="패스 82294" d="M55.71,29.962a.455.455,0,0,1-.049-.641.455.455,0,0,1,.7.586v.005a.463.463,0,0,1-.648.049m1.5-1.93a.459.459,0,1,1,.5-.769.458.458,0,0,1-.25.843.478.478,0,0,1-.25-.074m1.253-2.106a.453.453,0,0,1-.214-.611.458.458,0,0,1,.825.4.463.463,0,0,1-.416.262.437.437,0,0,1-.195-.048m.971-2.242a.459.459,0,1,1,.58-.293.463.463,0,0,1-.44.317.586.586,0,0,1-.14-.024m.677-2.351a.458.458,0,1,1,.177-.9.451.451,0,0,1,.36.537.458.458,0,0,1-.451.366.49.49,0,0,1-.086-.005m.373-2.418a.458.458,0,0,1-.421-.489.456.456,0,1,1,.91.061.459.459,0,0,1-.458.427Zm-.415-2.876a.458.458,0,0,1,.434-.482.456.456,0,1,1,.049.91c-.007.006-.013.006-.024.006a.464.464,0,0,1-.458-.434m-.288-2.376a.46.46,0,1,1,.537.366.536.536,0,0,1-.086.012.463.463,0,0,1-.452-.378M59.2,11.348a.459.459,0,1,1,.58.3.563.563,0,0,1-.14.019.465.465,0,0,1-.44-.318m-.873-2.224a.458.458,0,1,1,.611.22.432.432,0,0,1-.2.043.463.463,0,0,1-.415-.263M57.175,7.037V7.03a.456.456,0,0,1,.14-.63.459.459,0,1,1,.489.776.5.5,0,0,1-.245.067.453.453,0,0,1-.385-.207M55.771,5.1h0a.457.457,0,1,1,.641.061.44.44,0,0,1-.286.1.454.454,0,0,1-.354-.165M54.134,3.36h0a.458.458,0,0,1,.629-.666.461.461,0,0,1,.019.647.479.479,0,0,1-.336.14.439.439,0,0,1-.312-.122" transform="translate(-21.018 -1)" fill="#223f73"/>
        <path id="패스_82295" data-name="패스 82295" d="M51.334.922a.439.439,0,0,1-.324-.14.454.454,0,0,1-.134-.318A.458.458,0,0,1,51.01.14a.467.467,0,0,1,.647-.006.483.483,0,0,1,.134.33.454.454,0,0,1-.134.318.439.439,0,0,1-.324.14" transform="translate(-19.806 -0.002)" fill="#223f73"/>
        <path id="패스_82296" data-name="패스 82296" d="M14.214.923a.439.439,0,0,1-.324-.14.444.444,0,0,1-.134-.318.472.472,0,0,1,.134-.33.479.479,0,0,1,.647,0,.472.472,0,0,1,.134.33.454.454,0,0,1-.134.318.439.439,0,0,1-.324.14" transform="translate(-5.355 -0.003)" fill="#223f73"/>
        <path id="패스_82297" data-name="패스 82297" d="M1.147,16.11a.457.457,0,0,1-.421-.488.45.45,0,0,1,.489-.422.451.451,0,0,1,.421.489.458.458,0,0,1-.452.421Zm.268-2.388a.458.458,0,1,1,.544-.36.468.468,0,0,1-.452.373.484.484,0,0,1-.092-.012m.569-2.333a.457.457,0,1,1,.58-.287.464.464,0,0,1-.434.311.411.411,0,0,1-.147-.024m.849-2.247a.457.457,0,1,1,.4-.824.454.454,0,0,1,.214.611.448.448,0,0,1-.409.262.488.488,0,0,1-.2-.049M3.956,7.024a.467.467,0,0,1-.134-.635.457.457,0,1,1,.769.494.452.452,0,0,1-.385.208.468.468,0,0,1-.25-.067m1.38-1.973a.455.455,0,0,1-.055-.641.457.457,0,1,1,.7.586.451.451,0,0,1-.348.165.465.465,0,0,1-.3-.11M6.948,3.273a.468.468,0,0,1,.024-.653v.005a.456.456,0,1,1,.623.666.438.438,0,0,1-.311.122.452.452,0,0,1-.336-.14" transform="translate(-0.282 -0.974)" fill="#223f73"/>
        <path id="패스_82298" data-name="패스 82298" d="M1.124,28.164A.458.458,0,0,1,.8,28.03a.485.485,0,0,1-.134-.324A.457.457,0,0,1,.8,27.382a.478.478,0,0,1,.647-.006.456.456,0,0,1,.134.33.492.492,0,0,1-.128.324.483.483,0,0,1-.33.134" transform="translate(-0.259 -10.61)" fill="#223f73"/>
        <path id="패스_82299" data-name="패스 82299" d="M24.944,29.847h0a1.38,1.38,0,0,0-1.839-.366,1.38,1.38,0,0,1-2.064-.855,1.379,1.379,0,0,0-1.559-1.042A1.38,1.38,0,0,1,17.9,26a1.38,1.38,0,0,0-1.042-1.559h0A1.38,1.38,0,0,1,16,22.381a1.379,1.379,0,0,0-.365-1.839,1.379,1.379,0,0,1,0-2.234A1.379,1.379,0,0,0,16,16.469a1.38,1.38,0,0,1,.856-2.064,1.38,1.38,0,0,0,1.042-1.56,1.38,1.38,0,0,1,1.58-1.58,1.379,1.379,0,0,0,1.559-1.042A1.38,1.38,0,0,1,23.1,9.368,1.379,1.379,0,0,0,24.944,9a1.379,1.379,0,0,1,2.234,0,1.38,1.38,0,0,0,1.839.366,1.38,1.38,0,0,1,2.064.855,1.379,1.379,0,0,0,1.56,1.042,1.38,1.38,0,0,1,1.579,1.58,1.38,1.38,0,0,0,1.042,1.56,1.379,1.379,0,0,1,.856,2.064,1.38,1.38,0,0,0,.365,1.839,1.378,1.378,0,0,1,0,2.234,1.379,1.379,0,0,0-.365,1.839,1.379,1.379,0,0,1-.856,2.064h0A1.38,1.38,0,0,0,34.22,26a1.379,1.379,0,0,1-1.579,1.58,1.38,1.38,0,0,0-1.56,1.042,1.38,1.38,0,0,1-2.064.855,1.38,1.38,0,0,0-1.839.366,1.379,1.379,0,0,1-2.234,0" transform="translate(-5.866 -3.283)" fill="#fff"/>
        <path id="패스_82300" data-name="패스 82300" d="M29.86,11.011a12.256,12.256,0,0,1,2.083.181,1.377,1.377,0,0,1-.863-.969,1.38,1.38,0,0,0-2.064-.856A1.378,1.378,0,0,1,27.177,9a1.38,1.38,0,0,0-2.235,0,1.378,1.378,0,0,1-1.839.365,1.38,1.38,0,0,0-2.064.856,1.381,1.381,0,0,1-1.56,1.042,1.38,1.38,0,0,0-1.58,1.58,1.38,1.38,0,0,1-1.042,1.56A1.379,1.379,0,0,0,16,16.468a1.379,1.379,0,0,1-.366,1.839,1.379,1.379,0,0,0,0,2.234A1.38,1.38,0,0,1,16,22.381a1.379,1.379,0,0,0,.855,2.064,1.377,1.377,0,0,1,.969.863,12.2,12.2,0,0,1,12.033-14.3" transform="translate(-5.866 -3.283)" fill="#94c9ff"/>
        <path id="패스_82301" data-name="패스 82301" d="M25.769,30.583a1.82,1.82,0,0,1-1.488-.759.925.925,0,0,0-1.228-.244A1.837,1.837,0,0,1,20.3,28.441a.927.927,0,0,0-1.042-.7,1.838,1.838,0,0,1-2.1-2.1.925.925,0,0,0-.7-1.042,1.837,1.837,0,0,1-1.139-2.749.925.925,0,0,0-.245-1.229,1.839,1.839,0,0,1,0-2.976.924.924,0,0,0,.245-1.228,1.837,1.837,0,0,1,1.139-2.75.925.925,0,0,0,.7-1.042,1.838,1.838,0,0,1,2.1-2.1.928.928,0,0,0,1.042-.7,1.837,1.837,0,0,1,2.749-1.139.926.926,0,0,0,1.228-.245,1.82,1.82,0,0,1,1.488-.759h0a1.822,1.822,0,0,1,1.488.759.926.926,0,0,0,1.228.245,1.837,1.837,0,0,1,2.75,1.139.927.927,0,0,0,1.042.7,1.838,1.838,0,0,1,2.1,2.1.926.926,0,0,0,.7,1.042,1.837,1.837,0,0,1,1.139,2.749.926.926,0,0,0,.245,1.229,1.837,1.837,0,0,1,0,2.976.927.927,0,0,0-.244,1.229A1.837,1.837,0,0,1,35.077,24.6a.926.926,0,0,0-.7,1.042,1.838,1.838,0,0,1-2.1,2.1.926.926,0,0,0-1.042.7,1.837,1.837,0,0,1-2.749,1.139.924.924,0,0,0-1.228.244,1.818,1.818,0,0,1-1.488.759ZM23.53,28.53a1.846,1.846,0,0,1,1.493.756.911.911,0,0,0,.746.381h0a.911.911,0,0,0,.746-.38,1.846,1.846,0,0,1,2.45-.487.921.921,0,0,0,1.379-.571,1.849,1.849,0,0,1,2.078-1.388.922.922,0,0,0,1.055-1.055,1.845,1.845,0,0,1,1.388-2.077.921.921,0,0,0,.571-1.379,1.846,1.846,0,0,1,.487-2.45.921.921,0,0,0,0-1.492,1.846,1.846,0,0,1-.487-2.45.921.921,0,0,0-.571-1.379,1.845,1.845,0,0,1-1.388-2.077.923.923,0,0,0-1.055-1.056,1.845,1.845,0,0,1-2.078-1.388.921.921,0,0,0-1.379-.572,1.843,1.843,0,0,1-2.45-.487A.914.914,0,0,0,25.77,8.6h0a.913.913,0,0,0-.746.381,1.843,1.843,0,0,1-2.45.487.921.921,0,0,0-1.378.572,1.847,1.847,0,0,1-2.078,1.388.923.923,0,0,0-1.055,1.056,1.845,1.845,0,0,1-1.388,2.077.922.922,0,0,0-.571,1.379,1.845,1.845,0,0,1-.487,2.45.922.922,0,0,0,0,1.492A1.846,1.846,0,0,1,16.1,22.33a.922.922,0,0,0,.571,1.378,1.845,1.845,0,0,1,1.388,2.077.922.922,0,0,0,1.055,1.055,1.847,1.847,0,0,1,2.078,1.388.921.921,0,0,0,1.379.571,1.823,1.823,0,0,1,.956-.269" transform="translate(-5.574 -2.991)" fill="#223f73"/>
        <path id="패스_82302" data-name="패스 82302" d="M36.06,22.438l-2.7-2.7L28.19,24.89l-2.867-2.867-2.7,2.7,5.566,5.567Z" transform="translate(-8.808 -7.685)" fill="#fff"/>
        <path id="패스_82303" data-name="패스 82303" d="M27.074,27.764,23.81,24.5l-1.185,1.186,5.565,5.566,7.87-7.85-1.187-1.187-5.565,5.551a1.582,1.582,0,0,1-2.235,0" transform="translate(-8.808 -8.648)" fill="#94c9ff"/>
        <path id="패스_82304" data-name="패스 82304" d="M27.9,30.454a.458.458,0,0,1-.324-.134l-5.566-5.567a.457.457,0,0,1,0-.647l2.7-2.7a.458.458,0,0,1,.648,0L27.9,23.951l4.847-4.828a.459.459,0,0,1,.647,0l2.7,2.7a.459.459,0,0,1,0,.649l-7.869,7.85a.458.458,0,0,1-.323.133M22.98,24.43,27.9,29.349l7.22-7.2-2.051-2.052-4.847,4.829a.459.459,0,0,1-.647,0l-2.543-2.543Z" transform="translate(-8.516 -7.393)" fill="#223f73"/>
        <path id="패스_82305" data-name="패스 82305" d="M63.292,52.248a.454.454,0,0,1-.324-.134l-1.832-1.832a.458.458,0,0,1,.647-.647l1.832,1.832a.458.458,0,0,1-.324.782" transform="translate(-23.748 -19.271)" fill="#223f73"/>
        <path id="패스_82306" data-name="패스 82306" d="M61.46,52.248a.458.458,0,0,1-.324-.782l1.832-1.832a.458.458,0,0,1,.647.647l-1.832,1.832a.454.454,0,0,1-.324.134" transform="translate(-23.748 -19.271)" fill="#223f73"/>
        <path id="패스_82307" data-name="패스 82307" d="M29.79,57.248a.454.454,0,0,1-.324-.134l-1.832-1.832a.458.458,0,1,1,.647-.647l1.832,1.832a.458.458,0,0,1-.324.782" transform="translate(-10.706 -21.217)" fill="#223f73"/>
        <path id="패스_82308" data-name="패스 82308" d="M27.958,57.248a.458.458,0,0,1-.324-.782l1.832-1.832a.458.458,0,1,1,.647.647l-1.832,1.832a.454.454,0,0,1-.324.134" transform="translate(-10.706 -21.217)" fill="#223f73"/>
        <path id="패스_82309" data-name="패스 82309" d="M17.813,46.248a.454.454,0,0,1-.324-.134l-1.832-1.832a.458.458,0,1,1,.647-.647l1.832,1.832a.458.458,0,0,1-.324.782" transform="translate(-6.043 -16.935)" fill="#223f73"/>
        <path id="패스_82310" data-name="패스 82310" d="M15.981,46.248a.458.458,0,0,1-.324-.782l1.832-1.832a.458.458,0,1,1,.647.647L16.3,46.114a.454.454,0,0,1-.324.134" transform="translate(-6.043 -16.935)" fill="#223f73"/>
        <path id="패스_82311" data-name="패스 82311" d="M2.29,61.248a.454.454,0,0,1-.324-.134L.134,59.282a.458.458,0,0,1,.647-.647l1.832,1.832a.458.458,0,0,1-.324.782" transform="translate(0 -22.774)" fill="#223f73"/>
        <path id="패스_82312" data-name="패스 82312" d="M.458,61.248a.458.458,0,0,1-.324-.782l1.832-1.832a.458.458,0,0,1,.647.647L.782,61.114a.454.454,0,0,1-.324.134" transform="translate(0 -22.774)" fill="#223f73"/>
      </g>
    </g>
  </g>
</svg>
