<svg id="구성_요소_70" data-name="구성 요소 70" xmlns="http://www.w3.org/2000/svg" width="24" height="24" viewBox="0 0 24 24">
  <rect id="사각형_80190" data-name="사각형 80190" width="24" height="24" fill="#fff" opacity="0"/>
  <path id="bell-svgrepo-com_1_" data-name="bell-svgrepo-com (1)" d="M25.333,20.476c-.114,0-2.68-.477-2.68-8.282,0-5.512-3.074-8.944-8.154-8.944S6.344,6.682,6.344,12.194c0,7.95-2.655,8.282-2.642,8.282a.933.933,0,0,0-.674.291,1.024,1.024,0,0,0,0,1.405.933.933,0,0,0,.674.291H9.837a5,5,0,0,0,1.643,2.872,4.6,4.6,0,0,0,6.036,0,5,5,0,0,0,1.643-2.872h6.147a.933.933,0,0,0,.674-.291,1.024,1.024,0,0,0,0-1.405.933.933,0,0,0-.674-.291ZM14.5,24.451a2.765,2.765,0,0,1-1.643-.549,2.959,2.959,0,0,1-1.037-1.439h5.36A2.959,2.959,0,0,1,16.142,23.9,2.765,2.765,0,0,1,14.5,24.451ZM6.573,20.476C7.488,19.032,8.25,16.5,8.25,12.194S10.536,5.238,14.5,5.238s6.249,2.531,6.249,6.957.762,6.837,1.677,8.282Z" transform="translate(-2.75 -3.25)" fill="#6a75ca"/>
</svg>
