<svg id="icon_setting" xmlns="http://www.w3.org/2000/svg" xmlns:xlink="http://www.w3.org/1999/xlink" width="24" height="24" viewBox="0 0 24 24">
  <defs>
    <clipPath id="clip-path">
      <rect id="사각형_49" data-name="사각형 49" width="20" height="20" fill="#6a75ca"/>
    </clipPath>
  </defs>
  <rect id="사각형_79960" data-name="사각형 79960" width="24" height="24" fill="#6a75ca" opacity="0"/>
  <g id="그룹_103" data-name="그룹 103" transform="translate(2 2)">
    <g id="그룹_102" data-name="그룹 102" clip-path="url(#clip-path)">
      <path id="패스_264" data-name="패스 264" d="M19.368,12.135a2.349,2.349,0,0,1,0-4.264,1.032,1.032,0,0,0,.576-1.26,10.4,10.4,0,0,0-.531-1.278,1.042,1.042,0,0,0-1.288-.494,2.349,2.349,0,0,1-2.985-2.982A1.034,1.034,0,0,0,14.65.579,10.362,10.362,0,0,0,13.371.052a1.048,1.048,0,0,0-1.256.539,2.348,2.348,0,0,1-2.084,1.266A2.349,2.349,0,0,1,7.947.591,1.047,1.047,0,0,0,6.692.052a10.434,10.434,0,0,0-1.26.517,1.05,1.05,0,0,0-.538,1.247A2.348,2.348,0,0,1,1.961,4.743a1.086,1.086,0,0,0-1.29.539A10.387,10.387,0,0,0,.142,6.531,1.024,1.024,0,0,0,.65,7.765a2.347,2.347,0,0,1,1.238,2.07,2.351,2.351,0,0,1-1.31,2.109A1.011,1.011,0,0,0,.045,13.15,10.425,10.425,0,0,0,.533,14.4a1.1,1.1,0,0,0,1.319.566,2.35,2.35,0,0,1,2.881,3.059,1.009,1.009,0,0,0,.463,1.25,10.383,10.383,0,0,0,1.316.575,1,1,0,0,0,1.232-.536A2.347,2.347,0,0,1,12,19.354a1.053,1.053,0,0,0,1.273.6,10.387,10.387,0,0,0,1.294-.519,1.008,1.008,0,0,0,.482-1.273,2.348,2.348,0,0,1,3.035-3.013A1.041,1.041,0,0,0,19.4,14.67a10.394,10.394,0,0,0,.537-1.28,1.026,1.026,0,0,0-.568-1.255M10,15.1A5.1,5.1,0,1,1,15.093,10,5.094,5.094,0,0,1,10,15.1" transform="translate(0 0)" fill="#6a75ca"/>
    </g>
  </g>
</svg>
