<svg id="fa_sensor02" xmlns="http://www.w3.org/2000/svg" xmlns:xlink="http://www.w3.org/1999/xlink" width="26" height="26" viewBox="0 0 26 26">
  <defs>
    <clipPath id="clip-path">
      <rect id="사각형_81" data-name="사각형 81" width="26" height="26" fill="#6a75ca"/>
    </clipPath>
  </defs>
  <g id="그룹_154" data-name="그룹 154" clip-path="url(#clip-path)">
    <path id="패스_362" data-name="패스 362" d="M13,0A13,13,0,1,0,26,13,13.015,13.015,0,0,0,13,0m0,23.665A10.665,10.665,0,1,1,23.665,13,10.677,10.677,0,0,1,13,23.665" fill="#6a75ca"/>
    <path id="패스_363" data-name="패스 363" d="M57.176,54.436a2.717,2.717,0,0,0-1.192.276l-2.3-2.3a.9.9,0,0,0-1.272,1.272l2.3,2.3a2.737,2.737,0,1,0,2.463-1.548m0,3.681a.942.942,0,1,1,.942-.942.943.943,0,0,1-.942.942" transform="translate(-44.176 -44.175)" fill="#6a75ca"/>
    <path id="패스_364" data-name="패스 364" d="M32.727,23.287a9.451,9.451,0,0,0-9.44,9.44.9.9,0,1,0,1.8,0,7.642,7.642,0,1,1,15.284,0,.9.9,0,1,0,1.8,0,9.451,9.451,0,0,0-9.44-9.44" transform="translate(-19.727 -19.727)" fill="#6a75ca"/>
  </g>
</svg>
