<svg id="icon_Attatch_file" data-name="icon_Attatch file" xmlns="http://www.w3.org/2000/svg" width="18" height="25" viewBox="0 0 18 25">
  <path id="패스_82727" data-name="패스 82727" d="M-6581.609,345.109v19.433h16.064V348.984l-4.143-3.876Z" transform="translate(6582.584 -340.469)" fill="#fff"/>
  <g id="그룹_98698" data-name="그룹 98698">
    <path id="패스_82723" data-name="패스 82723" d="M18,7.969a.784.784,0,0,0-.013-.133v0a.72.72,0,0,0-.038-.125c0-.012-.01-.024-.015-.036a.736.736,0,0,0-.046-.088c-.007-.011-.013-.022-.021-.033a.776.776,0,0,0-.085-.1L13.947,3.568a.737.737,0,0,0-.1-.086l-.032-.021a.736.736,0,0,0-.087-.047L13.689,3.4a.793.793,0,0,0-.123-.038h0a.724.724,0,0,0-.131-.013l-.016,0H10.784V4.864h1.883v3.12a.755.755,0,0,0,.75.759H16.5v14.74H1.5V4.864H8.034V8.338a1.542,1.542,0,1,1-3.083,0V6.719a.75.75,0,1,0-1.5,0V8.338a3.042,3.042,0,1,0,6.083,0v-6.1a2.208,2.208,0,1,0-4.417,0V3.346H.75A.755.755,0,0,0,0,4.1V24.241A.754.754,0,0,0,.75,25h16.5a.754.754,0,0,0,.75-.759V7.984c0-.005,0-.011,0-.015M6.617,2.234a.708.708,0,1,1,1.416,0V3.346H6.617Z" fill="#757577"/>
    <path id="패스_82724" data-name="패스 82724" d="M23.006,46.084H14.794a.8.8,0,0,0,0,1.6h8.212a.8.8,0,0,0,0-1.6" transform="translate(-9.9 -32.534)" fill="#757577"/>
    <path id="패스_82725" data-name="패스 82725" d="M14.807,58.289h6.22a.8.8,0,0,0,0-1.6h-6.22a.8.8,0,1,0,0,1.6" transform="translate(-9.966 -40.021)" fill="#757577"/>
    <path id="패스_82726" data-name="패스 82726" d="M14.793,68.895h8.212a.8.8,0,0,0,0-1.6H14.793a.8.8,0,0,0,0,1.6" transform="translate(-9.9 -47.498)" fill="#757577"/>
  </g>
</svg>
