<svg xmlns="http://www.w3.org/2000/svg" width="25" height="24.999" viewBox="0 0 25 24.999">
  <g id="그룹_98208" data-name="그룹 98208" transform="translate(-1198.616 -405.421)">
    <path id="빼기_1" data-name="빼기 1" d="M20.145,24H3.857A3.825,3.825,0,0,1,0,20.215V3.2A3.235,3.235,0,0,1,3.261,0H20.74A3.235,3.235,0,0,1,24,3.2V20.215A3.825,3.825,0,0,1,20.145,24ZM2.24,6.289V20.215A1.6,1.6,0,0,0,3.857,21.8H20.145a1.6,1.6,0,0,0,1.615-1.586v-3.17h-.014V6.289ZM19.962,2.612a1.037,1.037,0,1,0,1.056,1.037A1.048,1.048,0,0,0,19.962,2.612Zm-3.885,0a1.037,1.037,0,1,0,1.056,1.037A1.048,1.048,0,0,0,16.077,2.612Zm-12.746.13a.907.907,0,1,0,0,1.814h8.745a.907.907,0,0,0,0-1.814Z" transform="translate(1199.116 405.921)" fill="#716be8" stroke="rgba(0,0,0,0)" stroke-miterlimit="10" stroke-width="1"/>
    <g id="그룹_34" data-name="그룹 34" transform="translate(1206.084 416.099)">
      <path id="패스_47" data-name="패스 47" d="M42.579,20.623l2.183-2.944-2.183-2.944-.9.664,1.691,2.28-1.691,2.28Z" transform="translate(-34.698 -14.52)" fill="#716be8"/>
      <path id="패스_48" data-name="패스 48" d="M16.448,14.734l-2.183,2.944,2.183,2.944.895-.664-1.691-2.28L17.343,15.4Z" transform="translate(-14.265 -14.519)" fill="#716be8"/>
      <rect id="사각형_27" data-name="사각형 27" width="6.225" height="1.114" transform="matrix(0.218, -0.976, 0.976, 0.218, 3.81, 6.076)" fill="#716be8"/>
    </g>
  </g>
</svg>
