<?xml version="1.0" encoding="UTF-8"?>
<!DOCTYPE svg PUBLIC "-//W3C//DTD SVG 1.1//EN" "http://www.w3.org/Graphics/SVG/1.1/DTD/svg11.dtd">
<svg xmlns="http://www.w3.org/2000/svg" version="1.1" width="816px" height="464px" style="shape-rendering:geometricPrecision; text-rendering:geometricPrecision; image-rendering:optimizeQuality; fill-rule:evenodd; clip-rule:evenodd" xmlns:xlink="http://www.w3.org/1999/xlink">
<g><path style="opacity:0.004" fill="#fefefe" d="M -0.5,-0.5 C 117.5,-0.5 235.5,-0.5 353.5,-0.5C 347.278,1.21948 343.111,5.21948 341,11.5C 340.333,47.8333 340.333,84.1667 341,120.5C 345.118,131.1 352.618,134.6 363.5,131C 370.385,127.74 373.551,122.24 373,114.5C 373.667,81.5 373.667,48.5 373,15.5C 371.882,7.22169 367.382,1.88836 359.5,-0.5C 375.5,-0.5 391.5,-0.5 407.5,-0.5C 392.749,4.46788 389.249,13.8012 397,27.5C 407.33,35.0243 416.33,33.691 424,23.5C 427.43,11.355 423.263,3.355 411.5,-0.5C 426.833,-0.5 442.167,-0.5 457.5,-0.5C 451.852,1.64984 448.019,5.64984 446,11.5C 445.333,48.1667 445.333,84.8333 446,121.5C 449.987,130.238 456.487,133.738 465.5,132C 472.088,130.318 476.255,125.818 478,118.5C 478.667,83.5 478.667,48.5 478,13.5C 476.274,7.01841 472.441,2.35174 466.5,-0.5C 495.5,-0.5 524.5,-0.5 553.5,-0.5C 546.222,2.29056 542.056,7.62389 541,15.5C 540.333,48.5 540.333,81.5 541,114.5C 541.024,121.285 543.691,126.619 549,130.5C 557.575,134.252 564.908,132.585 571,125.5C 572.562,123.043 573.562,120.376 574,117.5C 574.667,83.5 574.667,49.5 574,15.5C 573.06,8.06383 569.227,2.7305 562.5,-0.5C 646.833,-0.5 731.167,-0.5 815.5,-0.5C 815.5,154.167 815.5,308.833 815.5,463.5C 543.5,463.5 271.5,463.5 -0.5,463.5C -0.5,308.833 -0.5,154.167 -0.5,-0.5 Z"/></g>
<g><path style="opacity:0.004" fill="#040109" d="M 353.5,-0.5 C 355.5,-0.5 357.5,-0.5 359.5,-0.5C 367.382,1.88836 371.882,7.22169 373,15.5C 373.667,48.5 373.667,81.5 373,114.5C 373.551,122.24 370.385,127.74 363.5,131C 352.618,134.6 345.118,131.1 341,120.5C 340.333,84.1667 340.333,47.8333 341,11.5C 343.111,5.21948 347.278,1.21948 353.5,-0.5 Z"/></g>
<g><path style="opacity:0.004" fill="#010003" d="M 407.5,-0.5 C 408.833,-0.5 410.167,-0.5 411.5,-0.5C 423.263,3.355 427.43,11.355 424,23.5C 416.33,33.691 407.33,35.0243 397,27.5C 389.249,13.8012 392.749,4.46788 407.5,-0.5 Z"/></g>
<g><path style="opacity:0.004" fill="#00fefe" d="M 457.5,-0.5 C 460.5,-0.5 463.5,-0.5 466.5,-0.5C 472.441,2.35174 476.274,7.01841 478,13.5C 478.667,48.5 478.667,83.5 478,118.5C 476.255,125.818 472.088,130.318 465.5,132C 456.487,133.738 449.987,130.238 446,121.5C 445.333,84.8333 445.333,48.1667 446,11.5C 448.019,5.64984 451.852,1.64984 457.5,-0.5 Z"/></g>
<g><path style="opacity:0.004" fill="#01fefe" d="M 553.5,-0.5 C 556.5,-0.5 559.5,-0.5 562.5,-0.5C 569.227,2.7305 573.06,8.06383 574,15.5C 574.667,49.5 574.667,83.5 574,117.5C 573.562,120.376 572.562,123.043 571,125.5C 564.908,132.585 557.575,134.252 549,130.5C 543.691,126.619 541.024,121.285 541,114.5C 540.333,81.5 540.333,48.5 541,15.5C 542.056,7.62389 546.222,2.29056 553.5,-0.5 Z"/></g>
<g><path style="opacity:0.004" fill="#00fefe" d="M 507.5,48.5 C 518.177,48.6799 524.344,54.0132 526,64.5C 526.89,83.5309 526.557,102.531 525,121.5C 520.32,131.284 512.82,134.45 502.5,131C 496.429,128.189 493.262,123.355 493,116.5C 492.333,98.8333 492.333,81.1667 493,63.5C 494.721,55.2814 499.554,50.2814 507.5,48.5 Z"/></g>
<g><path style="opacity:0.004" fill="#000001" d="M 408.5,48.5 C 415.623,48.7877 420.79,52.121 424,58.5C 425.132,69.0978 425.632,79.7645 425.5,90.5C 425.632,101.235 425.132,111.902 424,122.5C 418.466,132.011 410.633,134.511 400.5,130C 397.96,127.795 395.793,125.295 394,122.5C 392.894,111.713 392.394,100.88 392.5,90C 392.37,79.7638 392.87,69.5972 394,59.5C 396.821,53.0228 401.655,49.3561 408.5,48.5 Z"/></g>
<g><path style="opacity:1" fill="#119795" d="M 94.5,78.5 C 94.9306,86.016 95.5973,93.516 96.5,101C 96.3333,103.167 96.1667,105.333 96,107.5C 95.2917,108.381 94.4584,109.047 93.5,109.5C 88.3182,97.6334 82.9848,85.8001 77.5,74C 77.8333,73.5 78.1667,73 78.5,72.5C 83.3056,73.9099 88.139,75.2432 93,76.5C 94.0299,76.8361 94.5299,77.5028 94.5,78.5 Z"/></g>
<g><path style="opacity:1" fill="#4eb981" d="M 95.5,79.5 C 101.091,86.9151 105.758,94.9151 109.5,103.5C 109.343,104.873 109.51,106.207 110,107.5C 115.477,115.758 120.81,124.091 126,132.5C 131.545,143.023 128.045,147.856 115.5,147C 112.059,148.318 110.725,150.818 111.5,154.5C 108.904,155.265 106.237,155.599 103.5,155.5C 103.5,153.833 103.5,152.167 103.5,150.5C 100.066,126.913 97.3993,103.247 95.5,79.5 Z"/></g>
<g><path style="opacity:1" fill="#2fa78d" d="M 94.5,78.5 C 95.1667,78.5 95.5,78.8333 95.5,79.5C 97.3993,103.247 100.066,126.913 103.5,150.5C 101.007,149.253 98.5074,149.253 96,150.5C 93.9094,149.744 92.076,148.577 90.5,147C 86.7791,146.38 83.1124,145.547 79.5,144.5C 78.2634,143.719 77.2634,142.719 76.5,141.5C 79.7291,140.125 80.8958,137.792 80,134.5C 76.2314,135.312 72.7314,136.478 69.5,138C 73.3604,134.14 77.1937,130.306 81,126.5C 83.0907,127.5 84.7574,126.833 86,124.5C 86.6834,120.298 89.0167,117.298 93,115.5C 93.4828,114.552 93.6495,113.552 93.5,112.5C 93.5,111.5 93.5,110.5 93.5,109.5C 94.4584,109.047 95.2917,108.381 96,107.5C 96.1667,105.333 96.3333,103.167 96.5,101C 95.5973,93.516 94.9306,86.016 94.5,78.5 Z"/></g>
<g><path style="opacity:1" fill="#3ca999" d="M 93.5,112.5 C 93.6495,113.552 93.4828,114.552 93,115.5C 89.0167,117.298 86.6834,120.298 86,124.5C 84.7574,126.833 83.0907,127.5 81,126.5C 77.1937,130.306 73.3604,134.14 69.5,138C 72.7314,136.478 76.2314,135.312 80,134.5C 80.8958,137.792 79.7291,140.125 76.5,141.5C 77.2634,142.719 78.2634,143.719 79.5,144.5C 83.1124,145.547 86.7791,146.38 90.5,147C 92.076,148.577 93.9094,149.744 96,150.5C 98.5074,149.253 101.007,149.253 103.5,150.5C 103.5,152.167 103.5,153.833 103.5,155.5C 106.237,155.599 108.904,155.265 111.5,154.5C 131.647,155.647 151.647,157.314 171.5,159.5C 174.5,159.333 177.5,159.167 180.5,159C 180.833,158.667 181.167,158.333 181.5,158C 179.277,157.434 177.277,156.6 175.5,155.5C 184.373,157.464 193.04,159.797 201.5,162.5C 172.51,160.734 143.51,159.067 114.5,157.5C 111.645,157.503 108.978,157.836 106.5,158.5C 105.065,156.599 103.398,156.266 101.5,157.5C 98.4194,155.375 95.0861,153.542 91.5,152C 82.2431,148.526 72.9097,145.359 63.5,142.5C 73.1186,132.215 83.1186,122.215 93.5,112.5 Z"/></g>
<g><path style="opacity:1" fill="#0e9896" d="M 63.5,142.5 C 72.9097,145.359 82.2431,148.526 91.5,152C 95.0861,153.542 98.4194,155.375 101.5,157.5C 81.2384,164.031 60.9051,170.365 40.5,176.5C 40.0618,176.565 39.7284,176.399 39.5,176C 47.6432,164.858 55.6432,153.691 63.5,142.5 Z"/></g>
<g><path style="opacity:1" fill="#42b692" d="M 109.5,103.5 C 115.459,111.386 120.959,119.72 126,128.5C 128.063,133.562 130.563,138.395 133.5,143C 147.801,146.57 161.801,150.736 175.5,155.5C 177.277,156.6 179.277,157.434 181.5,158C 181.167,158.333 180.833,158.667 180.5,159C 177.5,159.167 174.5,159.333 171.5,159.5C 151.647,157.314 131.647,155.647 111.5,154.5C 110.725,150.818 112.059,148.318 115.5,147C 128.045,147.856 131.545,143.023 126,132.5C 120.81,124.091 115.477,115.758 110,107.5C 109.51,106.207 109.343,104.873 109.5,103.5 Z"/></g>
<g><path style="opacity:1" fill="#50b886" d="M 63.5,142.5 C 55.6432,153.691 47.6432,164.858 39.5,176C 39.7284,176.399 40.0618,176.565 40.5,176.5C 39.791,177.404 38.791,177.737 37.5,177.5C 34.3454,171.861 31.1788,166.194 28,160.5C 27.2411,158.937 26.0744,157.937 24.5,157.5C 37.0934,151.636 50.0934,146.636 63.5,142.5 Z"/></g>
<g><path style="opacity:1" fill="#08526a" d="M 201.5,162.5 C 201.5,162.833 201.5,163.167 201.5,163.5C 197.987,190.282 194.32,216.949 190.5,243.5C 188.495,241.666 186.328,239.999 184,238.5C 158.187,211.706 132.354,185.039 106.5,158.5C 108.978,157.836 111.645,157.503 114.5,157.5C 143.51,159.067 172.51,160.734 201.5,162.5 Z"/></g>
<g><path style="opacity:1" fill="#08526b" d="M 798.5,185.5 C 753.447,179.027 708.447,171.36 663.5,162.5C 665.735,162.795 667.735,162.461 669.5,161.5C 707.487,159.413 745.487,157.913 783.5,157C 788.895,166.29 793.895,175.79 798.5,185.5 Z"/></g>
<g><path style="opacity:1" fill="#4eb981" d="M 720.5,188.5 C 737.406,194.621 754.072,201.288 770.5,208.5C 769.129,209.787 767.295,210.453 765,210.5C 757.903,209.849 751.07,208.515 744.5,206.5C 738.451,204.216 732.118,202.55 725.5,201.5C 723.281,198.982 720.614,198.315 717.5,199.5C 711.128,198.231 704.461,197.397 697.5,197C 696.675,195.312 695.675,195.145 694.5,196.5C 684.974,194.161 675.308,192.328 665.5,191C 664.501,188.239 662.501,186.906 659.5,187C 647.73,186.947 636.397,184.781 625.5,180.5C 621.809,182.128 617.976,181.795 614,179.5C 610.188,180.365 606.688,179.531 603.5,177C 619.806,173 635.806,169.333 651.5,166C 655.709,164.811 659.376,165.644 662.5,168.5C 660.577,169.308 658.577,169.808 656.5,170C 655.663,171.011 655.33,172.178 655.5,173.5C 663.813,173.218 672.146,173.051 680.5,173C 683.518,174.566 686.185,176.566 688.5,179C 692.269,180.101 696.103,180.934 700,181.5C 704.157,183.591 708.324,185.758 712.5,188C 715.146,188.497 717.813,188.664 720.5,188.5 Z"/></g>
<g><path style="opacity:1" fill="#0f526a" d="M 24.5,157.5 C 26.0744,157.937 27.2411,158.937 28,160.5C 31.1788,166.194 34.3454,171.861 37.5,177.5C 25.185,174.373 13.185,170.373 1.5,165.5C 9.01152,162.373 16.6782,159.706 24.5,157.5 Z"/></g>
<g><path style="opacity:1" fill="#059999" d="M 201.5,163.5 C 201.5,163.167 201.5,162.833 201.5,162.5C 244.481,171.996 287.481,181.329 330.5,190.5C 329.027,193.447 327.527,196.447 326,199.5C 305.591,229.307 284.925,258.974 264,288.5C 263.36,290.543 263.86,292.21 265.5,293.5C 264.5,293.5 263.5,293.5 262.5,293.5C 261.5,293.167 260.833,292.5 260.5,291.5C 240.741,248.662 221.074,205.996 201.5,163.5 Z"/></g>
<g><path style="opacity:1" fill="#2e6d7f" d="M 201.5,163.5 C 221.074,205.996 240.741,248.662 260.5,291.5C 236.464,276.485 213.13,260.485 190.5,243.5C 194.32,216.949 197.987,190.282 201.5,163.5 Z"/></g>
<g><path style="opacity:1" fill="#0b9997" d="M 663.5,162.5 C 708.447,171.36 753.447,179.027 798.5,185.5C 799.573,186.251 799.74,187.251 799,188.5C 793.604,196.234 788.604,204.234 784,212.5C 783.329,213.252 782.496,213.586 781.5,213.5C 777.952,211.647 774.285,209.981 770.5,208.5C 754.072,201.288 737.406,194.621 720.5,188.5C 700.516,179.518 680.182,171.018 659.5,163C 660.793,162.51 662.127,162.343 663.5,162.5 Z"/></g>
<g><path style="opacity:1" fill="#2fa68d" d="M 578.5,178.5 C 581.898,178.18 585.232,178.513 588.5,179.5C 582.764,184.569 577.431,189.902 572.5,195.5C 561.486,204.186 551.153,213.519 541.5,223.5C 536.726,227.098 532.06,230.931 527.5,235C 520.333,242.167 513.167,249.333 506,256.5C 488.125,233.357 470.292,210.357 452.5,187.5C 494.387,183.182 536.387,180.182 578.5,178.5 Z"/></g>
<g><path style="opacity:1" fill="#4eb980" d="M 607.5,191.5 C 608.552,191.351 609.552,191.517 610.5,192C 614.784,195.123 618.451,198.623 621.5,202.5C 623.783,202.608 625.783,203.441 627.5,205C 636.873,212.677 646.206,220.344 655.5,228C 644.205,229.428 633.038,231.261 622,233.5C 614.741,234.752 607.741,234.752 601,233.5C 600.215,235.286 599.049,236.786 597.5,238C 591.667,237.67 586.334,239.003 581.5,242C 566.685,245.414 551.685,247.414 536.5,248C 535.944,248.383 535.611,248.883 535.5,249.5C 529.254,249.408 523.088,250.075 517,251.5C 516.167,251.167 515.333,250.833 514.5,250.5C 516.865,246.749 520.198,244.415 524.5,243.5C 526.334,241.502 527.334,239.168 527.5,236.5C 529.199,236.66 530.866,236.494 532.5,236C 534.947,231.394 537.947,227.227 541.5,223.5C 551.153,213.519 561.486,204.186 572.5,195.5C 579.063,190.589 585.396,185.589 591.5,180.5C 594.871,183.364 598.204,186.531 601.5,190C 603.436,190.813 605.436,191.313 607.5,191.5 Z"/></g>
<g><path style="opacity:1" fill="#4db981" d="M 463.5,240.5 C 433.811,230.273 404.477,219.273 375.5,207.5C 373.925,205.059 371.592,203.893 368.5,204C 366.46,201.977 364.127,200.31 361.5,199C 355.687,197.373 350.02,195.373 344.5,193C 352.138,192.024 359.805,191.357 367.5,191C 394.502,190.314 421.502,189.981 448.5,190C 451.102,190.883 453.269,192.383 455,194.5C 455.311,195.742 454.811,196.742 453.5,197.5C 455.748,198.56 456.748,200.56 456.5,203.5C 457.93,203.579 459.264,203.246 460.5,202.5C 462.452,204.741 464.618,206.741 467,208.5C 468.143,211.336 469.976,213.669 472.5,215.5C 473.314,217.766 473.814,220.1 474,222.5C 475.399,223.227 476.899,223.727 478.5,224C 480.198,228.37 483.032,231.87 487,234.5C 489.006,237.536 489.84,240.869 489.5,244.5C 482.768,245.151 476.435,243.984 470.5,241C 468.19,240.503 465.857,240.337 463.5,240.5 Z"/></g>
<g><path style="opacity:1" fill="#34a78d" d="M 744.5,206.5 C 751.07,208.515 757.903,209.849 765,210.5C 767.295,210.453 769.129,209.787 770.5,208.5C 774.285,209.981 777.952,211.647 781.5,213.5C 781.158,214.338 780.492,214.672 779.5,214.5C 738.5,219.25 697.5,224.083 656.5,229C 655.627,230.045 654.627,230.878 653.5,231.5C 652.903,230.861 652.07,230.528 651,230.5C 605.519,238.997 560.019,247.33 514.5,255.5C 515.347,254.034 516.68,253.2 518.5,253C 524.299,251.952 529.966,250.786 535.5,249.5C 535.611,248.883 535.944,248.383 536.5,248C 551.685,247.414 566.685,245.414 581.5,242C 586.334,239.003 591.667,237.67 597.5,238C 599.049,236.786 600.215,235.286 601,233.5C 607.741,234.752 614.741,234.752 622,233.5C 633.038,231.261 644.205,229.428 655.5,228C 646.206,220.344 636.873,212.677 627.5,205C 625.783,203.441 623.783,202.608 621.5,202.5C 618.451,198.623 614.784,195.123 610.5,192C 609.552,191.517 608.552,191.351 607.5,191.5C 607.489,189.983 606.823,188.816 605.5,188C 601.656,185.578 597.99,182.911 594.5,180C 595.5,179.833 596.5,179.667 597.5,179.5C 646.453,188.825 695.453,197.825 744.5,206.5 Z"/></g>
<g><path style="opacity:1" fill="#56bb8f" d="M 669.5,161.5 C 667.735,162.461 665.735,162.795 663.5,162.5C 662.127,162.343 660.793,162.51 659.5,163C 680.182,171.018 700.516,179.518 720.5,188.5C 717.813,188.664 715.146,188.497 712.5,188C 708.324,185.758 704.157,183.591 700,181.5C 696.103,180.934 692.269,180.101 688.5,179C 686.185,176.566 683.518,174.566 680.5,173C 672.146,173.051 663.813,173.218 655.5,173.5C 655.33,172.178 655.663,171.011 656.5,170C 658.577,169.808 660.577,169.308 662.5,168.5C 659.376,165.644 655.709,164.811 651.5,166C 635.806,169.333 619.806,173 603.5,177C 606.688,179.531 610.188,180.365 614,179.5C 617.976,181.795 621.809,182.128 625.5,180.5C 636.397,184.781 647.73,186.947 659.5,187C 662.501,186.906 664.501,188.239 665.5,191C 675.308,192.328 684.974,194.161 694.5,196.5C 695.675,195.145 696.675,195.312 697.5,197C 704.461,197.397 711.128,198.231 717.5,199.5C 720.614,198.315 723.281,198.982 725.5,201.5C 732.118,202.55 738.451,204.216 744.5,206.5C 695.453,197.825 646.453,188.825 597.5,179.5C 596.5,179.667 595.5,179.833 594.5,180C 597.99,182.911 601.656,185.578 605.5,188C 606.823,188.816 607.489,189.983 607.5,191.5C 605.436,191.313 603.436,190.813 601.5,190C 598.204,186.531 594.871,183.364 591.5,180.5C 585.396,185.589 579.063,190.589 572.5,195.5C 577.431,189.902 582.764,184.569 588.5,179.5C 585.232,178.513 581.898,178.18 578.5,178.5C 604.702,174.535 630.702,169.035 656.5,162C 660.821,161.501 665.154,161.334 669.5,161.5 Z"/></g>
<g><path style="opacity:1" fill="#2ea78e" d="M 330.5,190.5 C 330.833,190.5 331.167,190.5 331.5,190.5C 334.218,191.104 336.551,192.437 338.5,194.5C 337.624,194.369 336.957,194.702 336.5,195.5C 364.852,227.483 393.685,259.149 423,290.5C 431.106,301.607 440.273,311.774 450.5,321C 449.748,321.671 449.414,322.504 449.5,323.5C 388.184,313.407 326.851,303.407 265.5,293.5C 263.86,292.21 263.36,290.543 264,288.5C 284.925,258.974 305.591,229.307 326,199.5C 327.527,196.447 329.027,193.447 330.5,190.5 Z"/></g>
<g><path style="opacity:1" fill="#089998" d="M 338.5,194.5 C 350.858,198.62 363.191,202.953 375.5,207.5C 404.477,219.273 433.811,230.273 463.5,240.5C 473.773,246.203 484.773,250.036 496.5,252C 498.743,254.467 501.41,256.3 504.5,257.5C 498.432,263.982 493.099,270.982 488.5,278.5C 481.702,284.806 475.868,291.806 471,299.5C 464.527,307.311 458.027,315.144 451.5,323C 464.839,323.453 478.172,323.953 491.5,324.5C 501.341,325.823 511.341,325.823 521.5,324.5C 516.373,302.868 511.373,281.201 506.5,259.5C 506.453,257.962 507.12,256.962 508.5,256.5C 509.058,257.79 510.058,258.623 511.5,259C 525.58,264.471 539.58,270.138 553.5,276C 559.311,278.549 565.311,280.382 571.5,281.5C 571.5,281.833 571.5,282.167 571.5,282.5C 570.508,282.328 569.842,282.662 569.5,283.5C 553.174,297.826 537.174,312.493 521.5,327.5C 498.834,326.5 476.167,325.5 453.5,324.5C 452.069,324.881 451.236,325.881 451,327.5C 446.88,359.839 442.713,392.173 438.5,424.5C 438.511,426.045 438.844,427.378 439.5,428.5C 439.5,429.167 439.167,429.5 438.5,429.5C 437.624,429.631 436.957,429.298 436.5,428.5C 428.057,409.802 419.057,391.469 409.5,373.5C 408.782,371.863 408.616,370.197 409,368.5C 410.332,366.34 411.832,364.34 413.5,362.5C 425.939,349.892 438.272,337.059 450.5,324C 450.272,323.601 449.938,323.435 449.5,323.5C 449.414,322.504 449.748,321.671 450.5,321C 440.273,311.774 431.106,301.607 423,290.5C 393.685,259.149 364.852,227.483 336.5,195.5C 336.957,194.702 337.624,194.369 338.5,194.5 Z"/></g>
<g><path style="opacity:1" fill="#d8e8be" d="M 779.5,214.5 C 780.501,215.789 780.334,217.122 779,218.5C 765.362,229.831 751.529,240.664 737.5,251C 729.873,260.125 720.873,267.625 710.5,273.5C 706.993,278.168 702.66,282.002 697.5,285C 693.324,290.504 687.991,294.504 681.5,297C 678.613,300.389 675.28,303.223 671.5,305.5C 669.193,305.986 667.027,305.986 665,305.5C 662.124,281.138 659.124,256.805 656,232.5C 652.127,234.859 648.294,237.359 644.5,240C 643.207,240.49 641.873,240.657 640.5,240.5C 640.67,241.822 640.337,242.989 639.5,244C 633.404,246.213 627.404,248.713 621.5,251.5C 631.794,244.347 642.461,237.68 653.5,231.5C 654.627,230.878 655.627,230.045 656.5,229C 697.5,224.083 738.5,219.25 779.5,214.5 Z"/></g>
<g><path style="opacity:1" fill="#2f6d7d" d="M 653.5,231.5 C 642.461,237.68 631.794,244.347 621.5,251.5C 604.589,261.075 587.922,271.075 571.5,281.5C 565.311,280.382 559.311,278.549 553.5,276C 539.58,270.138 525.58,264.471 511.5,259C 510.058,258.623 509.058,257.79 508.5,256.5C 510.5,256.167 512.5,255.833 514.5,255.5C 560.019,247.33 605.519,238.997 651,230.5C 652.07,230.528 652.903,230.861 653.5,231.5 Z"/></g>
<g><path style="opacity:1" fill="#d3dcb3" d="M 671.5,305.5 C 669.95,307.622 667.95,309.289 665.5,310.5C 664.833,310.5 664.167,310.5 663.5,310.5C 634.396,301.468 605.062,292.802 575.5,284.5C 575.649,283.448 575.483,282.448 575,281.5C 573.989,282.337 572.822,282.67 571.5,282.5C 571.5,282.167 571.5,281.833 571.5,281.5C 587.922,271.075 604.589,261.075 621.5,251.5C 627.404,248.713 633.404,246.213 639.5,244C 640.337,242.989 640.67,241.822 640.5,240.5C 641.873,240.657 643.207,240.49 644.5,240C 648.294,237.359 652.127,234.859 656,232.5C 659.124,256.805 662.124,281.138 665,305.5C 667.027,305.986 669.193,305.986 671.5,305.5 Z"/></g>
<g><path style="opacity:1" fill="#4fba8f" d="M 452.5,187.5 C 470.292,210.357 488.125,233.357 506,256.5C 513.167,249.333 520.333,242.167 527.5,235C 532.06,230.931 536.726,227.098 541.5,223.5C 537.947,227.227 534.947,231.394 532.5,236C 530.866,236.494 529.199,236.66 527.5,236.5C 527.334,239.168 526.334,241.502 524.5,243.5C 520.198,244.415 516.865,246.749 514.5,250.5C 515.333,250.833 516.167,251.167 517,251.5C 523.088,250.075 529.254,249.408 535.5,249.5C 529.966,250.786 524.299,251.952 518.5,253C 516.68,253.2 515.347,254.034 514.5,255.5C 512.5,255.833 510.5,256.167 508.5,256.5C 507.12,256.962 506.453,257.962 506.5,259.5C 511.373,281.201 516.373,302.868 521.5,324.5C 511.341,325.823 501.341,325.823 491.5,324.5C 500.5,324.5 509.5,324.5 518.5,324.5C 515.711,310.942 513.211,297.275 511,283.5C 508.46,278.499 506.794,273.166 506,267.5C 503.966,265.44 501.966,265.774 500,268.5C 499.667,268.167 499.333,267.833 499,267.5C 498.333,269.5 497,270.833 495,271.5C 495,274.833 495,278.167 495,281.5C 493.899,277.864 491.732,276.864 488.5,278.5C 493.099,270.982 498.432,263.982 504.5,257.5C 501.41,256.3 498.743,254.467 496.5,252C 484.773,250.036 473.773,246.203 463.5,240.5C 465.857,240.337 468.19,240.503 470.5,241C 476.435,243.984 482.768,245.151 489.5,244.5C 489.84,240.869 489.006,237.536 487,234.5C 483.032,231.87 480.198,228.37 478.5,224C 476.899,223.727 475.399,223.227 474,222.5C 473.814,220.1 473.314,217.766 472.5,215.5C 469.976,213.669 468.143,211.336 467,208.5C 464.618,206.741 462.452,204.741 460.5,202.5C 459.264,203.246 457.93,203.579 456.5,203.5C 456.748,200.56 455.748,198.56 453.5,197.5C 454.811,196.742 455.311,195.742 455,194.5C 453.269,192.383 451.102,190.883 448.5,190C 421.502,189.981 394.502,190.314 367.5,191C 359.805,191.357 352.138,192.024 344.5,193C 350.02,195.373 355.687,197.373 361.5,199C 364.127,200.31 366.46,201.977 368.5,204C 371.592,203.893 373.925,205.059 375.5,207.5C 363.191,202.953 350.858,198.62 338.5,194.5C 336.551,192.437 334.218,191.104 331.5,190.5C 371.824,189.146 412.158,188.146 452.5,187.5 Z"/></g>
<g><path style="opacity:1" fill="#4db981" d="M 491.5,324.5 C 478.172,323.953 464.839,323.453 451.5,323C 458.027,315.144 464.527,307.311 471,299.5C 475.868,291.806 481.702,284.806 488.5,278.5C 491.732,276.864 493.899,277.864 495,281.5C 495,278.167 495,274.833 495,271.5C 497,270.833 498.333,269.5 499,267.5C 499.333,267.833 499.667,268.167 500,268.5C 501.966,265.774 503.966,265.44 506,267.5C 506.794,273.166 508.46,278.499 511,283.5C 513.211,297.275 515.711,310.942 518.5,324.5C 509.5,324.5 500.5,324.5 491.5,324.5 Z"/></g>
<g><path style="opacity:1" fill="#e4edbd" d="M 663.5,310.5 C 661.364,311.719 659.031,312.552 656.5,313C 629.562,316.242 602.562,318.909 575.5,321C 561.044,322.641 546.711,324.641 532.5,327C 531.377,325.956 530.044,325.29 528.5,325C 531.802,323.533 533.802,321.033 534.5,317.5C 537.409,314.423 540.742,311.923 544.5,310C 550.019,302.981 556.352,296.814 563.5,291.5C 565.934,289.079 567.934,286.412 569.5,283.5C 569.842,282.662 570.508,282.328 571.5,282.5C 572.822,282.67 573.989,282.337 575,281.5C 575.483,282.448 575.649,283.448 575.5,284.5C 605.062,292.802 634.396,301.468 663.5,310.5 Z"/></g>
<g><path style="opacity:1" fill="#ddeccc" d="M 262.5,293.5 C 263.5,293.5 264.5,293.5 265.5,293.5C 326.851,303.407 388.184,313.407 449.5,323.5C 449.938,323.435 450.272,323.601 450.5,324C 438.272,337.059 425.939,349.892 413.5,362.5C 413.561,360.408 414.561,358.908 416.5,358C 393.259,352.965 369.926,348.298 346.5,344C 331.899,333.583 317.399,322.75 303,311.5C 289.351,305.587 275.851,299.587 262.5,293.5 Z"/></g>
<g><path style="opacity:1" fill="#d1e7c3" d="M 569.5,283.5 C 567.934,286.412 565.934,289.079 563.5,291.5C 556.352,296.814 550.019,302.981 544.5,310C 540.742,311.923 537.409,314.423 534.5,317.5C 533.802,321.033 531.802,323.533 528.5,325C 530.044,325.29 531.377,325.956 532.5,327C 546.711,324.641 561.044,322.641 575.5,321C 602.562,318.909 629.562,316.242 656.5,313C 659.031,312.552 661.364,311.719 663.5,310.5C 664.167,310.5 664.833,310.5 665.5,310.5C 664.375,312.129 663.041,313.629 661.5,315C 642.776,326.18 624.11,337.013 605.5,347.5C 598.249,349.813 590.915,351.813 583.5,353.5C 586.031,351.702 589.031,350.535 592.5,350C 593.687,348.981 594.687,347.814 595.5,346.5C 595,346.167 594.5,345.833 594,345.5C 573.531,340.926 553.031,336.092 532.5,331C 530.875,330.147 530.542,329.147 531.5,328C 528.076,326.139 524.909,326.639 522,329.5C 520.275,332.674 518.942,336.007 518,339.5C 516.574,341.766 514.74,343.432 512.5,344.5C 515.233,338.702 518.233,333.035 521.5,327.5C 537.174,312.493 553.174,297.826 569.5,283.5 Z"/></g>
<g><path style="opacity:1" fill="#07526b" d="M 453.5,324.5 C 476.167,325.5 498.834,326.5 521.5,327.5C 518.233,333.035 515.233,338.702 512.5,344.5C 507.774,351.905 503.441,359.572 499.5,367.5C 498.833,367.5 498.5,367.833 498.5,368.5C 482.864,354.531 467.864,339.864 453.5,324.5 Z"/></g>
<g><path style="opacity:1" fill="#2e6d7f" d="M 453.5,324.5 C 467.864,339.864 482.864,354.531 498.5,368.5C 478.833,388.5 459.167,408.5 439.5,428.5C 438.844,427.378 438.511,426.045 438.5,424.5C 442.713,392.173 446.88,359.839 451,327.5C 451.236,325.881 452.069,324.881 453.5,324.5 Z"/></g>
<g><path style="opacity:1" fill="#d7e5bc" d="M 583.5,353.5 C 580.045,355.209 576.379,356.542 572.5,357.5C 571.833,358.167 571.167,358.833 570.5,359.5C 570.631,358.624 570.298,357.957 569.5,357.5C 565.647,358.99 561.647,360.156 557.5,361C 539.842,363.582 522.175,366.082 504.5,368.5C 502.742,368.408 501.076,368.075 499.5,367.5C 503.441,359.572 507.774,351.905 512.5,344.5C 514.74,343.432 516.574,341.766 518,339.5C 518.942,336.007 520.275,332.674 522,329.5C 524.909,326.639 528.076,326.139 531.5,328C 530.542,329.147 530.875,330.147 532.5,331C 553.031,336.092 573.531,340.926 594,345.5C 594.5,345.833 595,346.167 595.5,346.5C 594.687,347.814 593.687,348.981 592.5,350C 589.031,350.535 586.031,351.702 583.5,353.5 Z"/></g>
<g><path style="opacity:1" fill="#306d7d" d="M 605.5,347.5 C 601.628,361.115 597.961,374.782 594.5,388.5C 592.25,386.364 590.083,384.03 588,381.5C 582.488,373.535 577.322,365.535 572.5,357.5C 576.379,356.542 580.045,355.209 583.5,353.5C 590.915,351.813 598.249,349.813 605.5,347.5 Z"/></g>
<g><path style="opacity:1" fill="#159797" d="M 572.5,357.5 C 577.322,365.535 582.488,373.535 588,381.5C 590.083,384.03 592.25,386.364 594.5,388.5C 594.5,389.833 593.833,390.5 592.5,390.5C 584.206,391.827 575.873,392.827 567.5,393.5C 568.831,382.198 569.831,370.865 570.5,359.5C 571.167,358.833 571.833,358.167 572.5,357.5 Z"/></g>
<g><path style="opacity:1" fill="#50b981" d="M 409.5,373.5 C 419.057,391.469 428.057,409.802 436.5,428.5C 436.957,429.298 437.624,429.631 438.5,429.5C 427.009,438.145 415.343,446.645 403.5,455C 389.544,455.045 375.877,453.545 362.5,450.5C 362.082,449.778 361.416,449.278 360.5,449C 357.854,448.503 355.187,448.336 352.5,448.5C 352.421,447.07 352.754,445.736 353.5,444.5C 360.195,440.97 365.362,435.97 369,429.5C 372.826,426.547 376.66,423.547 380.5,420.5C 381.527,418.447 382.527,416.447 383.5,414.5C 390.781,406.387 398.614,398.72 407,391.5C 408.649,385.64 409.483,379.64 409.5,373.5 Z"/></g>
<g><path style="opacity:1" fill="#55b985" d="M 592.5,390.5 C 591.928,392.255 591.094,393.922 590,395.5C 581.622,404.042 573.456,412.709 565.5,421.5C 560.045,423.24 554.545,424.907 549,426.5C 547.743,426.15 547.409,425.483 548,424.5C 554.534,414.078 561.034,403.744 567.5,393.5C 575.873,392.827 584.206,391.827 592.5,390.5 Z"/></g>
<g><path style="opacity:0.847" fill="#6cb58e" d="M 383.5,414.5 C 382.527,416.447 381.527,418.447 380.5,420.5C 376.66,423.547 372.826,426.547 369,429.5C 365.362,435.97 360.195,440.97 353.5,444.5C 352.754,445.736 352.421,447.07 352.5,448.5C 355.187,448.336 357.854,448.503 360.5,449C 361.416,449.278 362.082,449.778 362.5,450.5C 358.818,450.665 355.152,450.499 351.5,450C 350.376,449.751 349.376,449.251 348.5,448.5C 359.538,436.488 371.204,425.155 383.5,414.5 Z"/></g>
</svg>
